<svg xmlns="http://www.w3.org/2000/svg" width="179" height="31" viewBox="0 0 179 31"><defs><clipPath id="o4nda"><path fill="#fff" d="M99.521 15.5c0-8.207 6.653-14.86 14.86-14.86 8.206 0 14.858 6.654 14.858 14.86s-6.652 14.859-14.859 14.859c-8.206 0-14.859-6.653-14.859-14.86z"/></clipPath><clipPath id="o4ndb"><path fill="#fff" d="M149.282 15.5c0-8.207 6.652-14.86 14.859-14.86C172.347.64 179 7.295 179 15.5s-6.653 14.859-14.86 14.859c-8.206 0-14.858-6.653-14.858-14.86z"/></clipPath></defs><g><g><g><path fill="none" stroke="#00d8b7" stroke-miterlimit="50" d="M27.99 15.5h127.858"/></g><g><path fill="#00d8b7" d="M0 15.5C0 7.293 6.653.64 14.86.64c8.206 0 14.858 6.654 14.858 14.86S23.066 30.359 14.86 30.359C6.653 30.359 0 23.706 0 15.499z"/></g><g><path fill="#00d8b7" d="M49.76 15.5C49.76 7.293 56.414.64 64.62.64c8.206 0 14.859 6.654 14.859 14.86s-6.653 14.859-14.86 14.859c-8.206 0-14.858-6.653-14.858-14.86z"/></g><g><path fill="#00d8b7" d="M99.521 15.5c0-8.207 6.653-14.86 14.86-14.86 8.206 0 14.858 6.654 14.858 14.86s-6.652 14.859-14.859 14.859c-8.206 0-14.859-6.653-14.859-14.86z"/><path fill="none" stroke="#00d8b7" stroke-miterlimit="50" stroke-width="2" d="M99.521 15.5c0-8.207 6.653-14.86 14.86-14.86 8.206 0 14.858 6.654 14.858 14.86s-6.652 14.859-14.859 14.859c-8.206 0-14.859-6.653-14.859-14.86z" clip-path="url(&quot;#o4nda&quot;)"/></g><g><path fill="#00d8b7" d="M149.282 15.5c0-8.207 6.652-14.86 14.859-14.86C172.347.64 179 7.295 179 15.5s-6.653 14.859-14.86 14.859c-8.206 0-14.858-6.653-14.858-14.86z"/><path fill="none" stroke="#00d8b7" stroke-miterlimit="50" stroke-width="2" d="M149.282 15.5c0-8.207 6.652-14.86 14.859-14.86C172.347.64 179 7.295 179 15.5s-6.653 14.859-14.86 14.859c-8.206 0-14.858-6.653-14.858-14.86z" clip-path="url(&quot;#o4ndb&quot;)"/></g><g><g><text dominant-baseline="text-before-edge" style="font-kerning:normal" fill="#3b3b3b" font-family="'Rajdhani','Rajdhani-Bold'" font-size="12" font-style="none" font-weight="700" transform="translate(11 7)"><tspan>1</tspan><tspan>.</tspan></text></g></g><g><g><text dominant-baseline="text-before-edge" style="font-kerning:normal" fill="#3b3b3b" font-family="'Rajdhani','Rajdhani-Bold'" font-size="12" font-style="none" font-weight="700" transform="translate(60 7)"><tspan>2</tspan><tspan>.</tspan></text></g></g><g><g><text dominant-baseline="text-before-edge" style="font-kerning:normal" fill="#3b3b3b" font-family="'Rajdhani','Rajdhani-Bold'" font-size="12" font-style="none" font-weight="700" transform="translate(110 7)"><tspan>3</tspan><tspan>.</tspan></text></g></g><g><g><text dominant-baseline="text-before-edge" style="font-kerning:normal" fill="#3b3b3b" font-family="'Rajdhani','Rajdhani-Bold'" font-size="12" font-style="none" font-weight="700" transform="translate(160 7)"><tspan>4</tspan><tspan>.</tspan></text></g></g></g></g></svg>