<svg xmlns="http://www.w3.org/2000/svg" width="108" height="85" viewBox="0 0 108 85"><g><g><g><g><g><path d="M78.93 72.51a3.591 3.591 0 0 1-3.588 3.588 3.591 3.591 0 0 1-3.588-3.588v-2.512c0-.735-.447-1.393-1.128-1.666L28.7 51.563V28.878L70.626 12.11a1.797 1.797 0 0 0 1.128-1.666V7.93a3.591 3.591 0 0 1 3.588-3.587 3.591 3.591 0 0 1 3.587 3.587zM75.341.756a7.182 7.182 0 0 0-7.176 7.175v1.297L26.24 25.998a1.798 1.798 0 0 0-1.126 1.666v25.114c0 .733.447 1.392 1.126 1.664l41.926 16.77v1.298a7.182 7.182 0 0 0 7.176 7.175 7.183 7.183 0 0 0 7.175-7.175V7.931A7.182 7.182 0 0 0 75.342.756z"/></g></g></g><g><g><g><path d="M14.35 50.984c-5.935 0-10.762-4.827-10.762-10.763S8.415 29.458 14.35 29.458h10.763v21.526zM26.909 25.87H14.35C6.438 25.87 0 32.308 0 40.22c0 7.913 6.438 14.351 14.35 14.351h12.558c.99 0 1.793-.801 1.793-1.793V27.664c0-.99-.803-1.794-1.793-1.794z"/></g></g></g><g><g><g><path d="M89.692 44.309l-7.175 2.39V33.74l7.175 2.392zm2.361-11.172L81.29 29.549a1.793 1.793 0 0 0-2.36 1.703V49.19c0 .576.276 1.117.744 1.457a1.8 1.8 0 0 0 1.616.243l10.763-3.587a1.788 1.788 0 0 0 1.227-1.701V34.839c0-.773-.493-1.456-1.227-1.702z"/></g></g></g><g><g><g><path d="M33.161 78.73a.719.719 0 0 1-.332.186l-11.744 2.269-6.263-26.614h10.685l5.044 20.167c.079.316.242.604.472.834l2.145 2.145a.71.71 0 0 1 .206.508.72.72 0 0 1-.213.504zm.748-5.345l-5.261-21.042a1.794 1.794 0 0 0-1.74-1.36H12.557a1.8 1.8 0 0 0-1.406.679c-.341.43-.467.992-.341 1.526l7.175 30.496a1.797 1.797 0 0 0 2.086 1.349l13.472-2.601.054-.01a4.324 4.324 0 0 0 2.084-1.138 4.278 4.278 0 0 0 1.28-3.037 4.278 4.278 0 0 0-1.25-3.059z"/></g></g></g><g><g><g><path d="M96.868 42.015v-3.588h10.763v3.588z"/></g></g></g><g><g><g><path d="M97.787 25.619l-1.846-3.076 8.968-5.383 1.847 3.076z"/></g></g></g><g><g><g><path d="M104.927 63.284l-8.97-5.381 1.846-3.077 8.97 5.382z"/></g></g></g><g><g><g><path d="M68.166 70.716V9.726h3.588v60.99z"/></g></g></g><g><g><g><path d="M17.938 40.22v-7.175h3.588v7.176z"/></g></g></g><g><g><g><path d="M10.763 40.22v-7.175h3.588v7.176z"/></g></g></g></g></g></svg>