<svg xmlns="http://www.w3.org/2000/svg" width="165" height="144" viewBox="0 0 165 144"><g><g><g/><g><path fill="#00d8b7" d="M15.787 98.489a2.806 2.806 0 0 1 2.23 1.098c.455.594.65 1.33.552 2.07l-4.323 34.636a2.787 2.787 0 0 1-3.142 2.406 2.783 2.783 0 0 1-1.855-1.074 2.779 2.779 0 0 1-.552-2.07l4.324-34.636c.099-.74.48-1.4 1.072-1.854a2.774 2.774 0 0 1 1.694-.576zm-4.31 42.853a5.43 5.43 0 0 0 5.364-4.703l4.323-34.636a5.381 5.381 0 0 0-1.068-4.007 5.38 5.38 0 0 0-3.587-2.078 5.379 5.379 0 0 0-4.01 1.068 5.385 5.385 0 0 0-2.075 3.588L6.101 135.21a5.382 5.382 0 0 0 1.067 4.008 5.384 5.384 0 0 0 3.588 2.077c.236.032.478.047.72.047z"/></g><g/><g><path fill="#00d8b7" d="M33.643 99.038a2.782 2.782 0 0 1 1.073 1.855l3.967 34.663a2.78 2.78 0 0 1-.552 2.07 2.782 2.782 0 0 1-1.856 1.073 2.802 2.802 0 0 1-3.14-2.406l-3.967-34.663a2.781 2.781 0 0 1 .552-2.07 2.778 2.778 0 0 1 1.854-1.073 2.772 2.772 0 0 1 2.069.55zm2.979 42.257a5.383 5.383 0 0 0 3.588-2.078 5.383 5.383 0 0 0 1.068-4.007l-3.966-34.662a5.384 5.384 0 0 0-2.077-3.59 5.368 5.368 0 0 0-4.007-1.067 5.384 5.384 0 0 0-3.589 2.077 5.381 5.381 0 0 0-1.067 4.007l3.967 34.663a5.43 5.43 0 0 0 6.083 4.657z"/></g><g/><g><path fill="#00d8b7" d="M157.81 71.309v68.262c0 .705-.603 1.277-1.346 1.277-.742 0-1.347-.572-1.347-1.277V71.309c0-.705.605-1.278 1.347-1.278.743 0 1.346.574 1.346 1.278zm2.62 68.262V71.309c0-2.075-1.78-3.764-3.966-3.764-2.187 0-3.966 1.689-3.966 3.764v68.262c0 2.075 1.78 3.763 3.966 3.763s3.965-1.688 3.965-3.763z"/></g><g/><g/><g/><g/><g/><g/><g/><g/><g><path fill="#00d8b7" d="M30.98 58.157v5.293c0 4.02-3.27 7.29-7.29 7.29s-7.29-3.27-7.29-7.29v-5.293c0-4.02 3.27-7.29 7.29-7.29s7.29 3.27 7.29 7.29zm2.62 5.293v-5.293c0-5.464-4.445-9.909-9.91-9.909-5.464 0-9.91 4.445-9.91 9.91v5.292c0 5.464 4.446 9.909 9.91 9.909s9.91-4.445 9.91-9.91z"/></g><g/><g><path fill="#00d8b7" d="M81.382 12.175v6.686c0 5.269-4.287 9.556-9.556 9.556-5.27 0-9.556-4.287-9.556-9.556v-6.686c0-5.27 4.287-9.556 9.556-9.556 5.27 0 9.556 4.287 9.556 9.556zM84 18.86v-6.686C84 5.46 78.539 0 71.826 0 65.112 0 59.65 5.462 59.65 12.175v6.686c0 6.713 5.461 12.175 12.175 12.175C78.539 31.036 84 25.574 84 18.86z"/></g><g/><g><path fill="#00d8b7" d="M34.576 98.268c-.647 5.166-5.066 9.175-10.405 9.175h-.96c-5.34 0-9.759-4.01-10.405-9.175zm-10.405 11.795c7.226 0 13.105-5.88 13.104-13.104a1.31 1.31 0 0 0-1.31-1.31h-24.55a1.31 1.31 0 0 0-1.31 1.31c0 7.225 5.88 13.104 13.104 13.104z"/></g><g/><g><g><path fill="#00d8b7" d="M35.782 73.359c.06.009.12.013.182.013.603 0 1.121.38 1.29.947l7.45 24.831a1.348 1.348 0 0 1-.903 1.677c-.691.208-1.468-.212-1.675-.903l-4.905-16.352a1.31 1.31 0 0 0-2.564.376V95.65H12.725V83.948a1.31 1.31 0 0 0-2.564-.377L5.255 99.925a1.373 1.373 0 0 1-1.676.903 1.348 1.348 0 0 1-.903-1.677l7.45-24.832c.17-.566.688-.947 1.29-.947.06 0 .122-.004.18-.013zM3.967 103.504a3.99 3.99 0 0 0 3.797-2.826l2.342-7.808v4.089c0 .722.586 1.31 1.31 1.31h24.55a1.31 1.31 0 0 0 1.31-1.31V92.87l2.342 7.805a3.99 3.99 0 0 0 3.797 2.828 3.97 3.97 0 0 0 3.8-5.105l-7.45-24.831a3.93 3.93 0 0 0-3.574-2.808 1.338 1.338 0 0 0-.224-.02H11.416c-.075 0-.148.006-.22.019a3.933 3.933 0 0 0-3.578 2.808L.168 98.398a3.971 3.971 0 0 0 3.799 5.106z"/></g><g><path fill="#00d8b7" d="M71.826 84.457c-3.708 0-6.847 2.894-7.145 6.59l-3.739 45.99c-.177 2.173-2.12 3.841-4.313 3.665a4.006 4.006 0 0 1-3.665-4.313l4.64-57.096c.003-.023.014-.096.016-.12.004-.044.007-.089.007-.133v-8.69h28.398v8.688c0 .044.002.089.008.133l4.654 57.218a3.976 3.976 0 0 1-.939 2.915 3.977 3.977 0 0 1-2.725 1.397 4.02 4.02 0 0 1-4.314-3.664l-3.737-45.992c-.3-3.694-3.44-6.588-7.146-6.588zm14.867 58.877A6.578 6.578 0 0 0 91.745 141a6.575 6.575 0 0 0 1.553-4.824L88.655 79.04a1.536 1.536 0 0 0-.01-.09v-9.908a1.31 1.31 0 0 0-1.31-1.31H56.318a1.31 1.31 0 0 0-1.31 1.31v9.91c-.005.036-.01.074-.01.093l-4.645 57.132a6.629 6.629 0 0 0 6.064 7.136c3.663.293 6.843-2.472 7.134-6.063l3.739-45.991c.19-2.345 2.182-4.182 4.536-4.182 2.353 0 4.345 1.837 4.536 4.182l3.737 45.991c.277 3.412 3.173 6.085 6.594 6.085z"/></g><g><path fill="#00d8b7" d="M87.336 53.829a1.309 1.309 0 0 0-1.311 1.31V67.73H57.626V55.286a1.31 1.31 0 0 0-2.596-.241l-3.437 18.294a2.67 2.67 0 0 1-3.122 2.135 2.656 2.656 0 0 1-1.714-1.12 2.655 2.655 0 0 1-.42-2.003l7.352-39.135a2.673 2.673 0 0 1 2.628-2.178c.03 0 .058 0 .087-.002h30.83c.033.002.067.004.1.004h.034c1.284 0 2.386.912 2.623 2.177l7.352 39.136a2.656 2.656 0 0 1-.42 2.003 2.66 2.66 0 0 1-2.213 1.165 2.672 2.672 0 0 1-2.623-2.181l-3.465-18.443a1.31 1.31 0 0 0-1.286-1.068zM94.71 78.14a5.263 5.263 0 0 0 4.374-2.305 5.264 5.264 0 0 0 .832-3.966l-7.352-39.135a5.282 5.282 0 0 0-5.124-4.313 1.386 1.386 0 0 0-.106-.004H56.317a1.28 1.28 0 0 0-.1.004 5.294 5.294 0 0 0-5.102 4.313l-7.353 39.135a5.258 5.258 0 0 0 .833 3.965 5.259 5.259 0 0 0 3.392 2.214 5.293 5.293 0 0 0 6.18-4.225l.858-4.568a1.31 1.31 0 0 0 1.293 1.095h31.016a1.31 1.31 0 0 0 1.303-1.181l.875 4.654a5.293 5.293 0 0 0 5.198 4.317z"/></g><g><path fill="#00d8b7" d="M129.413 87.86c-2.907 0-5.369 2.27-5.605 5.168l-3.576 44.009c-.177 2.172-2.112 3.84-4.314 3.664a4.006 4.006 0 0 1-3.665-4.313l3.993-49.122a1.15 1.15 0 0 0 .005-.107V74.87h26.326v12.29c0 .035.002.07.005.106l3.993 49.122a3.978 3.978 0 0 1-.94 2.916 3.974 3.974 0 0 1-2.725 1.397 4.019 4.019 0 0 1-4.314-3.664l-3.577-44.009c-.236-2.899-2.699-5.169-5.606-5.169zm13.166 55.474a6.58 6.58 0 0 0 5.053-2.334 6.575 6.575 0 0 0 1.553-4.823l-3.988-49.07V73.562a1.31 1.31 0 0 0-1.31-1.31h-28.945a1.31 1.31 0 0 0-1.31 1.31v13.546l-3.988 49.07a6.629 6.629 0 0 0 6.063 7.136c3.64.296 6.844-2.472 7.135-6.064l3.577-44.008a3.022 3.022 0 0 1 2.995-2.762 3.022 3.022 0 0 1 2.995 2.762l3.577 44.008c.277 3.412 3.173 6.085 6.593 6.085z"/></g><g><path fill="#00d8b7" d="M114.938 38.185h.002c.02-.007.061-.001.092-.003h28.778c.029.002.058.002.087.002a2.69 2.69 0 0 1 2.625 2.083l4.711 20.827a1.31 1.31 0 0 0 1.278 1.02h7.196c1.474 0 2.674 1.201 2.674 2.675 0 1.474-1.2 2.674-2.674 2.674h-10.38a2.66 2.66 0 0 1-2.608-2.084l-1.555-6.873a1.318 1.318 0 0 0-1.423-1.013 1.31 1.31 0 0 0-1.164 1.302v13.456h-26.326v-13.34a1.31 1.31 0 0 0-2.587-.29l-2.975 13.15c-.318 1.403-1.771 2.34-3.2 2.02a2.677 2.677 0 0 1-2.017-3.198l6.86-30.326a2.69 2.69 0 0 1 2.606-2.082zm-6.854 38.291a5.265 5.265 0 0 0 5.16-4.126l.388-1.717v2.928c0 .723.586 1.31 1.31 1.31h28.945a1.31 1.31 0 0 0 1.31-1.31v-5.453a5.27 5.27 0 0 0 4.13 1.974h10.38A5.299 5.299 0 0 0 165 64.789a5.299 5.299 0 0 0-5.293-5.293h-6.15l-4.481-19.807a5.324 5.324 0 0 0-5.19-4.126h-28.945c-.035 0-.07.002-.104.004a5.261 5.261 0 0 0-5.06 4.123l-6.86 30.324a5.261 5.261 0 0 0 .686 3.993 5.26 5.26 0 0 0 3.308 2.338c.386.087.78.131 1.173.131z"/></g></g><g/><g><path fill="#00d8b7" d="M138.243 20.141v6.24c0 4.869-3.96 8.83-8.83 8.83-4.868 0-8.83-3.961-8.83-8.83v-6.24c0-4.869 3.961-8.83 8.83-8.83 4.87 0 8.831 3.961 8.83 8.83zm2.62 6.24v-6.24c0-6.313-5.137-11.449-11.45-11.449-6.312 0-11.448 5.136-11.448 11.449v6.24c0 6.312 5.135 11.448 11.448 11.448 6.313 0 11.45-5.136 11.45-11.448z"/></g><g><path fill="#00d8b7" d="M87.334 56.448a1.31 1.31 0 0 1-1.287-1.07L83.391 41.07a1.31 1.31 0 0 1 2.575-.479L88.623 54.9a1.31 1.31 0 0 1-1.29 1.549z"/></g><g><path fill="#00d8b7" d="M56.319 56.448a1.31 1.31 0 0 1-1.29-1.55l2.656-14.306a1.31 1.31 0 0 1 2.576.478l-2.656 14.307a1.31 1.31 0 0 1-1.286 1.07z"/></g><g><path fill="#00d8b7" d="M11.415 97.259s1.579 12.597 12.9 11.65c11.32-.946 11.693-11.65 11.693-11.65z"/></g></g></g></svg>