<svg xmlns="http://www.w3.org/2000/svg" width="105" height="104" viewBox="0 0 105 104"><g><g><g><g><g><path d="M43.286 74.201c-.739-.565-2.708-1.544-3.036-4.325a1.522 1.522 0 0 0-1.51-1.345c-.92 0-1.621.8-1.517 1.703h.002c.29 2.485 1.64 4.682 3.7 6.025.108.07.215.144.327.225-1.057 1.206-1.93 2.221-2.93 3.326a1.527 1.527 0 0 0 .17 2.206c2.558 2.089 3.959 5.093 3.961 8.293a10.652 10.652 0 0 1-10.667 10.66c-5.863-.008-10.667-4.733-10.667-10.66.007-4.823 3.057-7.406 3.291-7.737l4.521-4.521a13.233 13.233 0 0 0 3.865-9.376 13.03 13.03 0 0 0-2.123-7.17c1.193-1.091 2.23-2.06 3.435-3.133l.007-.008C67.156 28.903 98.855 3.578 99.45 3.237c-.409.408-59.867 59.84-60.141 60.15-.559.63-.5 1.595.128 2.152a1.526 1.526 0 0 0 2.152-.128c.182-.208 59.58-59.585 60.016-60.02-.125.219-24.667 31.305-58.32 68.81zm54.663 6.459a4.541 4.541 0 0 1 1.34 3.232c0 1.222-.476 2.37-1.34 3.233l-2.155 2.155-32.798-32.798a1614.47 1614.47 0 0 0 4.998-5.778zM15.566 9.05l2.155-2.154a4.577 4.577 0 0 1 6.465 0l29.923 29.923c-1.93 1.658-3.859 3.321-5.784 4.991zm87.938-7.71l-.015-.015a4.659 4.659 0 0 0-3.257-1.341h-.006c-1.046 0-2.07.36-2.883 1.011a1573.329 1573.329 0 0 0-40.914 33.833L26.34 4.74c-2.97-2.97-7.805-2.97-10.776 0L1.274 19.03a1.524 1.524 0 0 0 2.156 2.155l9.98-9.98 2.18 2.182-9.98 9.98a1.524 1.524 0 0 0 2.156 2.154l9.98-9.98 2.18 2.182-9.98 9.98a1.524 1.524 0 0 0 2.156 2.154l9.98-9.98 2.18 2.182-9.98 9.979a1.524 1.524 0 0 0 2.156 2.155l9.98-9.98 2.18 2.182-9.98 9.979a1.524 1.524 0 0 0 2.156 2.155l9.979-9.98 2.18 2.182-9.979 9.98a1.524 1.524 0 0 0 2.155 2.154l9.98-9.98 2.18 2.182-9.979 9.98a1.524 1.524 0 0 0 2.155 2.154l9.98-9.979 2.18 2.181-9.979 9.98a1.524 1.524 0 0 0 2.155 2.155l9.98-9.98 2.258 2.258c-4.68 4.075-9.335 8.174-13.937 12.278-.002 0-.002 0-.002.002-1.368 1.216-2.86 2.617-4.33 3.944-.902.652-.73 1.798-.283 2.245a10.043 10.043 0 0 1 2.28 6.39c0 2.741-1.055 5.306-2.97 7.22L22.18 80.49c-6.627 6.781-18.297 2.154-18.304-7.45.004-5.832 4.714-10.648 10.663-10.652a10.647 10.647 0 0 1 8.3 3.954c.552.68 1.565.754 2.207.17.008-.005.014-.011.022-.02l.015-.012a1.524 1.524 0 0 0-.135-2.369 13.693 13.693 0 0 0-10.399-4.77h-.02C6.91 59.341.82 65.545.83 73.04c-.007 5.648 3.444 10.636 8.55 12.71a13.761 13.761 0 0 0 9.352.35c-2.86 8.895 3.795 17.917 13.044 17.917h.017c7.558 0 13.717-6.119 13.709-13.708a13.609 13.609 0 0 0-3.908-9.586l3.112-3.538a1647.32 1647.32 0 0 0 16.286-18.398l2.296 2.296-9.98 9.98a1.524 1.524 0 1 0 2.156 2.155l9.98-9.98 2.18 2.181-9.98 9.98a1.524 1.524 0 1 0 2.156 2.155l9.98-9.98 2.18 2.181-9.98 9.98a1.524 1.524 0 1 0 2.156 2.155l9.98-9.98 2.18 2.18-9.98 9.98a1.524 1.524 0 1 0 2.156 2.156l9.98-9.98 2.18 2.18-9.98 9.98a1.524 1.524 0 1 0 2.156 2.156l9.98-9.98 2.18 2.18-9.98 9.98a1.524 1.524 0 1 0 2.156 2.155l9.98-9.979 2.18 2.18-9.98 9.98a1.524 1.524 0 1 0 2.156 2.155l9.98-9.98 2.18 2.181-9.98 9.98a1.524 1.524 0 1 0 2.156 2.155l11.056-11.056.002-.001.001-.002 3.231-3.23a7.57 7.57 0 0 0 2.232-5.389 7.57 7.57 0 0 0-2.232-5.388l-30.12-30.119A1540.515 1540.515 0 0 0 103.847 7.5a4.623 4.623 0 0 0-.345-6.16z"/></g></g></g><g><g><g><path d="M17.779 76.28a4.578 4.578 0 0 1-6.466 0c-2.855-2.855-.856-7.8 3.233-7.8 4.1 0 6.074 4.958 3.233 7.8zm2.154-8.619c-4.806-4.807-13.008-1.343-13.008 5.387 0 2.034.793 3.947 2.233 5.387a7.595 7.595 0 0 0 5.388 2.227c1.95 0 3.902-.742 5.387-2.227a7.62 7.62 0 0 0 0-10.774z"/></g></g></g><g><g><g><path d="M33.524 94.524c-1.363.564-3.385.603-4.97-.982-1.587-1.586-1.545-3.617-.977-4.988.564-1.36 1.965-2.814 4.21-2.814 2.52 0 4.57 2.05 4.57 4.57 0 2.241-1.463 3.646-2.833 4.214zm-1.738-11.832c-3.133 0-5.825 1.8-7.024 4.695-1.206 2.91-.578 6.095 1.637 8.31 1.472 1.471 3.367 2.242 5.325 2.242.989 0 1.994-.197 2.967-.6 2.908-1.205 4.715-3.898 4.715-7.03 0-4.2-3.418-7.617-7.62-7.617z"/></g></g></g></g></g></svg>