<svg xmlns="http://www.w3.org/2000/svg" width="110" height="110" viewBox="0 0 110 110"><g><g><g><g><g><path d="M66.05 19.05l16.482-7.119 16.48 7.119v20.467a7.65 7.65 0 0 1-3.24 6.209l-13.24 9.413-13.241-9.428a7.635 7.635 0 0 1-3.24-6.194zm1.115 29.645L81.469 58.88c.639.45 1.492.45 2.126 0l14.304-10.185a11.327 11.327 0 0 0 4.778-9.178V17.849c0-.731-.43-1.39-1.099-1.681L83.263 8.257c-.46-.2-.987-.2-1.447 0l-18.315 7.91a1.837 1.837 0 0 0-1.099 1.682v21.668a11.313 11.313 0 0 0 4.763 9.178z"/></g><g><path d="M77.769 43.707a1.828 1.828 0 0 0 2.53-.317L94.95 25.075a1.823 1.823 0 0 0-.286-2.57 1.83 1.83 0 0 0-2.576.285L78.541 39.716l-5.898-4.43a1.833 1.833 0 0 0-1.82-.22 1.854 1.854 0 0 0-1.098 1.466c-.076.65.2 1.293.72 1.682z"/></g><g><path d="M3.791 66.05a5.492 5.492 0 0 1 5.494-5.494h61.912l5.534 3.94a9.154 9.154 0 0 0-7.016 8.882 5.495 5.495 0 0 0 5.494 5.494h10.987a5.498 5.498 0 0 0 5.494-5.494v-3.664a5.503 5.503 0 0 0-3.506-5.11l4.533-3.225a5.412 5.412 0 0 1 2.632 4.67v27.47h-5.494v-3.66a3.66 3.66 0 0 0-3.66-3.664h-3.663a3.664 3.664 0 0 0-3.664 3.664v3.66H20.272v-3.66a3.664 3.664 0 0 0-3.664-3.664h-3.664a3.663 3.663 0 0 0-3.66 3.664v3.66H3.792zm18.387-38.456a5.506 5.506 0 0 1 5.177-3.664H47.74v3.664h-5.493a3.664 3.664 0 0 0-3.664 3.664v3.66a3.664 3.664 0 0 0 3.664 3.664h12.817v.935a18.65 18.65 0 0 0 7.854 15.147l3.133 2.228H11.87zm32.886 0h-3.665V23.93h3.665zm0 3.664v3.66H42.247v-3.66zM86.196 67.88c1.012 0 1.83.823 1.83 1.835v3.664a1.83 1.83 0 0 1-1.83 1.83H75.209a1.835 1.835 0 0 1-1.835-1.83 5.5 5.5 0 0 1 5.494-5.499zM58.728 14.236L82.532 3.954l23.804 10.282v25.27a14.976 14.976 0 0 1-6.311 12.168l-17.493 12.46L65.044 51.68a14.978 14.978 0 0 1-6.316-12.163zm27.468 79.282h-3.664V89.86h3.664zm3.659 10.987a1.832 1.832 0 0 1-1.83 1.835H77.038a1.832 1.832 0 0 1-1.83-1.835v-7.323h14.647zM16.608 93.518h-3.664V89.86h3.664zm7.323 10.987a1.832 1.832 0 0 1-1.83 1.835H11.115a1.832 1.832 0 0 1-1.83-1.835v-7.323h14.647zm-20.14-7.323h1.83v7.323A5.492 5.492 0 0 0 11.114 110h10.988a5.492 5.492 0 0 0 5.493-5.494v-7.323h43.95v7.323A5.492 5.492 0 0 0 77.037 110h10.987a5.492 5.492 0 0 0 5.494-5.494v-7.323h1.83a3.664 3.664 0 0 0 3.664-3.664V66.05a9.075 9.075 0 0 0-3.164-6.904l6.296-4.482A18.65 18.65 0 0 0 110 39.517V13.035c0-.73-.43-1.39-1.099-1.681L83.263.274c-.46-.199-.987-.199-1.447 0l-25.654 11.08a1.83 1.83 0 0 0-1.098 1.68v7.237H27.355a9.155 9.155 0 0 0-8.631 6.112L7.94 57.03a9.146 9.146 0 0 0-7.814 9.02v27.468a3.664 3.664 0 0 0 3.664 3.664z"/></g><g><path d="M33.089 27.594h-3.133a5.508 5.508 0 0 0-5.182 3.664l-6.873 19.537a1.83 1.83 0 1 0 3.455 1.212l6.873-19.527c.26-.731.95-1.222 1.727-1.222h3.133a1.832 1.832 0 0 0 0-3.664z"/></g><g><path d="M11.114 69.714c0-1.012.818-1.835 1.83-1.835h7.328a5.5 5.5 0 0 1 5.494 5.499c0 1.007-.823 1.83-1.835 1.83H12.944a1.83 1.83 0 0 1-1.83-1.83zm12.817 9.158a5.495 5.495 0 0 0 5.494-5.494 9.161 9.161 0 0 0-9.153-9.158h-7.328a5.495 5.495 0 0 0-5.494 5.494v3.664a5.498 5.498 0 0 0 5.494 5.494z"/></g><g><path d="M36.753 78.872h25.634v7.323H36.753zm0 10.987h25.634a3.664 3.664 0 0 0 3.664-3.664v-7.323a3.664 3.664 0 0 0-3.664-3.664H36.753a3.664 3.664 0 0 0-3.664 3.664v7.323a3.664 3.664 0 0 0 3.664 3.664z"/></g></g></g></g></g></svg>