<svg xmlns="http://www.w3.org/2000/svg" width="154" height="154" viewBox="0 0 154 154"><g><g><g><g><g><path fill="#00d8b7" d="M92.142 26.54l23.004-9.936 23.004 9.936v28.568a10.678 10.678 0 0 1-4.523 8.666l-18.481 13.139-18.482-13.16a10.657 10.657 0 0 1-4.522-8.645zm1.555 41.378l19.965 14.216a2.573 2.573 0 0 0 2.967 0l19.966-14.216a15.81 15.81 0 0 0 6.67-12.81V24.863c0-1.02-.6-1.94-1.534-2.346l-25.565-11.042a2.546 2.546 0 0 0-2.019 0L88.583 22.517a2.564 2.564 0 0 0-1.534 2.346v30.245a15.79 15.79 0 0 0 6.648 12.81z"/></g><g><path fill="#00d8b7" d="M108.498 60.956a2.552 2.552 0 0 0 3.53-.442L132.48 34.95a2.545 2.545 0 0 0-.4-3.588 2.554 2.554 0 0 0-3.594.4l-18.91 23.624-8.232-6.185a2.559 2.559 0 0 0-2.539-.306 2.588 2.588 0 0 0-1.533 2.047 2.558 2.558 0 0 0 1.005 2.347z"/></g><g><path fill="#00d8b7" d="M5.24 92.142a7.665 7.665 0 0 1 7.668-7.668h86.417l7.725 5.5a12.777 12.777 0 0 0-9.794 12.397 7.67 7.67 0 0 0 7.668 7.668h15.336c4.23 0 7.668-3.438 7.668-7.668v-5.114a7.682 7.682 0 0 0-4.893-7.133l6.327-4.501a7.554 7.554 0 0 1 3.673 6.52v38.339h-7.668v-5.107a5.108 5.108 0 0 0-5.107-5.115h-5.114a5.114 5.114 0 0 0-5.115 5.115v5.107H28.244v-5.107a5.114 5.114 0 0 0-5.114-5.115h-5.114a5.113 5.113 0 0 0-5.108 5.115v5.107H5.24zm25.665-53.676a7.685 7.685 0 0 1 7.226-5.114h28.453v5.114h-7.668a5.114 5.114 0 0 0-5.114 5.115v5.107a5.114 5.114 0 0 0 5.114 5.114h17.89v1.306A26.031 26.031 0 0 0 87.769 76.25l4.373 3.11H16.518zm45.9 0h-5.113v-5.114h5.114zm0 5.115v5.107H58.917V43.58zm43.455 51.115a2.557 2.557 0 0 1 2.554 2.56v5.115a2.555 2.555 0 0 1-2.554 2.553h-15.336a2.562 2.562 0 0 1-2.56-2.553c0-4.237 3.438-7.675 7.667-7.675zM81.92 19.82l33.226-14.352 33.225 14.352v35.272a20.904 20.904 0 0 1-8.809 16.984l-24.416 17.39-24.41-17.383a20.907 20.907 0 0 1-8.816-16.976zm38.34 110.661h-5.114v-5.107h5.114zm5.107 15.336a2.557 2.557 0 0 1-2.553 2.56h-15.336a2.557 2.557 0 0 1-2.554-2.56v-10.222h20.443zM23.13 130.482h-5.114v-5.107h5.114zm10.222 15.336a2.557 2.557 0 0 1-2.554 2.56H15.462a2.557 2.557 0 0 1-2.554-2.56v-10.222h20.444zM5.24 135.596h2.554v10.222a7.665 7.665 0 0 0 7.668 7.668h15.336a7.665 7.665 0 0 0 7.668-7.668v-10.222H99.81v10.222a7.665 7.665 0 0 0 7.668 7.668h15.336a7.665 7.665 0 0 0 7.668-7.668v-10.222h2.553a5.114 5.114 0 0 0 5.115-5.114v-38.34a12.666 12.666 0 0 0-4.416-9.637l8.788-6.255a26.031 26.031 0 0 0 10.964-21.142V18.144c0-1.02-.6-1.94-1.534-2.346L116.166.333a2.545 2.545 0 0 0-2.019 0L78.34 15.798a2.553 2.553 0 0 0-1.534 2.346v10.1H38.13a12.778 12.778 0 0 0-12.048 8.532l-15.05 42.776C4.782 80.472.14 85.83.125 92.142v38.34a5.114 5.114 0 0 0 5.114 5.114z"/></g><g><path fill="#00d8b7" d="M46.134 38.466h-4.373a7.687 7.687 0 0 0-7.232 5.114l-9.594 27.27a2.555 2.555 0 0 0 1.562 3.26 2.562 2.562 0 0 0 3.26-1.57l9.593-27.255a2.561 2.561 0 0 1 2.411-1.705h4.373a2.557 2.557 0 0 0 0-5.114z"/></g><g><path fill="#00d8b7" d="M15.462 97.257a2.557 2.557 0 0 1 2.554-2.561h10.228c4.23 0 7.668 3.438 7.668 7.675a2.562 2.562 0 0 1-2.56 2.553H18.016a2.556 2.556 0 0 1-2.554-2.553zm2.554 12.782h15.336a7.67 7.67 0 0 0 7.668-7.668c-.008-7.062-5.721-12.775-12.776-12.783H18.016a7.67 7.67 0 0 0-7.668 7.669v5.114a7.674 7.674 0 0 0 7.668 7.668z"/></g><g><path fill="#00d8b7" d="M51.248 110.039h35.78v10.221h-35.78zm0 15.336h35.78a5.114 5.114 0 0 0 5.114-5.115V110.04a5.114 5.114 0 0 0-5.115-5.115H51.248a5.114 5.114 0 0 0-5.114 5.115v10.221a5.114 5.114 0 0 0 5.114 5.115z"/></g></g></g></g></g></svg>