<svg xmlns="http://www.w3.org/2000/svg" width="93" height="92" viewBox="0 0 93 92"><g><g><g><g><g><path d="M89.27 51.753c0 7.567-6.155 13.722-13.722 13.722h-3.06a37.53 37.53 0 0 0 1.535-3.595h1.525c5.584 0 10.127-4.543 10.127-10.127V46.09c0-.992-.805-1.797-1.798-1.797h-7.55v-3.596H89.27zm-12.943-2.876v-.989h5.753v3.865a6.539 6.539 0 0 1-6.532 6.532h-.408a37.843 37.843 0 0 0 1.187-9.408zm.522 33.077c-.823 3.698-4.13 6.472-8.072 6.472H12.689c-3.943 0-7.25-2.774-8.073-6.472zm14.22-44.852H76.326v-3.805c0-.993-.805-1.798-1.798-1.798H35.7a1.798 1.798 0 0 0 0 3.596h37.033v13.782c0 12.107-6.464 23.36-16.902 29.482H21.321C10.884 72.236 4.42 60.984 4.42 48.877V35.095h12.044a1.798 1.798 0 0 0 0-3.596H2.622c-.993 0-1.798.805-1.798 1.798v15.58a37.704 37.704 0 0 0 5.282 19.268 37.953 37.953 0 0 0 8.895 10.214H2.621c-.992 0-1.797.805-1.797 1.798 0 6.542 5.323 11.864 11.865 11.864h56.088c6.542 0 11.865-5.322 11.865-11.864 0-.993-.805-1.798-1.798-1.798H62.15a37.968 37.968 0 0 0 8.324-9.288h5.074c9.55 0 17.318-7.769 17.318-17.318V38.9c0-.993-.805-1.798-1.798-1.798z"/></g></g></g><g><g><g><path d="M40.292 9.929l-.935-1.175a4.686 4.686 0 0 1-.005-5.859A1.797 1.797 0 1 0 36.536.66a8.265 8.265 0 0 0 .009 10.334l.935 1.175a6.124 6.124 0 0 1 .006 7.657l-.958 1.208a1.797 1.797 0 1 0 2.816 2.235l.959-1.208a9.703 9.703 0 0 0-.01-12.132z"/></g></g></g><g><g><g><path d="M50.257 13.97l-.936-1.174a4.686 4.686 0 0 1-.005-5.86A1.797 1.797 0 1 0 46.5 4.703a8.266 8.266 0 0 0 .01 10.334l.934 1.175a6.125 6.125 0 0 1 .007 7.657l-.959 1.208a1.797 1.797 0 1 0 2.817 2.235l.958-1.208a9.704 9.704 0 0 0-.01-12.132z"/></g></g></g><g><g><g><path d="M30.328 13.97l-.935-1.173a4.686 4.686 0 0 1-.005-5.86 1.798 1.798 0 1 0-2.817-2.235 8.266 8.266 0 0 0 .01 10.334l.935 1.175a6.124 6.124 0 0 1 .006 7.657l-.958 1.207a1.798 1.798 0 0 0 2.815 2.236l.96-1.208a9.704 9.704 0 0 0-.011-12.132z"/></g></g></g><g><g><g><path d="M27.84 32.025a1.811 1.811 0 0 0-1.271-.526c-.473 0-.937.192-1.271.526a1.815 1.815 0 0 0-.527 1.271c0 .473.193.937.527 1.273a1.81 1.81 0 0 0 1.27.525c.474 0 .938-.19 1.272-.525.336-.336.527-.798.527-1.273 0-.473-.191-.936-.527-1.27z"/></g></g></g><g><g><g><path d="M65.9 47.08c-.992 0-1.797.804-1.797 1.797 0 6.673-2.707 13.23-7.426 17.992a1.798 1.798 0 1 0 2.554 2.53c5.381-5.429 8.467-12.909 8.467-20.522 0-.993-.805-1.798-1.797-1.798z"/></g></g></g><g><g><g><path d="M53.656 71.748a1.798 1.798 0 0 0-2.45-.683l-.04.024a1.798 1.798 0 1 0 1.766 3.131l.041-.023a1.798 1.798 0 0 0 .683-2.449z"/></g></g></g></g></g></svg>