<svg xmlns="http://www.w3.org/2000/svg" width="110" height="110" viewBox="0 0 110 110"><g><g><g><path d="M78.234 81.893c.167 0 .333-.006.493-.006 1.17-.035 2.219.533 2.798 1.53.264.46.791 1.657-.023 3.004-7.223 11.895-21.021 19.284-36.012 19.284-22.638 0-41.05-16.647-41.05-37.106 0-20.46 18.412-37.107 41.05-37.107 14.99 0 28.789 7.39 36.012 19.284.814 1.348.287 2.546.023 2.999-.58.997-1.628 1.57-2.798 1.536-.16-.006-.326-.006-.493-.006-7.95 0-14.417 5.962-14.417 13.294 0 7.332 6.466 13.294 14.417 13.294zm0-22.294l.362.006a7.404 7.404 0 0 0 6.638-3.664c1.358-2.327 1.33-5.09-.069-7.389-7.991-13.173-23.2-21.354-39.675-21.354-12.073 0-23.434 4.283-31.987 12.056C4.887 47.079.146 57.5.146 68.599c0 11.098 4.74 21.52 13.357 29.345 8.553 7.773 19.914 12.055 31.987 12.055 16.476 0 31.684-8.18 39.675-21.353 1.399-2.3 1.427-5.062.069-7.39a7.403 7.403 0 0 0-6.638-3.663 7.5 7.5 0 0 1-.362.006c-5.583 0-10.123-4.036-10.123-9 0-4.965 4.54-9 10.123-9z"/></g><g><path d="M20.44 73.713a5.118 5.118 0 0 1-5.114-5.114 5.118 5.118 0 0 1 5.113-5.113 5.118 5.118 0 0 1 5.113 5.113 5.118 5.118 0 0 1-5.113 5.114zm0-14.521c-5.183 0-9.402 4.22-9.402 9.407 0 5.188 4.219 9.407 9.401 9.407 5.188 0 9.407-4.22 9.407-9.407 0-5.188-4.219-9.407-9.407-9.407z"/></g><g><path d="M35.968 43.381a5.118 5.118 0 0 1 5.114 5.114 5.118 5.118 0 0 1-5.114 5.113 5.118 5.118 0 0 1-5.113-5.113 5.118 5.118 0 0 1 5.113-5.114zm0 14.521c5.183 0 9.402-4.22 9.402-9.407 0-5.188-4.22-9.407-9.402-9.407-5.187 0-9.407 4.219-9.407 9.407s4.22 9.407 9.407 9.407z"/></g><g><path d="M58.388 52.754a3.677 3.677 0 0 1-3.668-3.674 3.672 3.672 0 0 1 7.343 0 3.678 3.678 0 0 1-3.675 3.674zm0-11.637c-4.385 0-7.962 3.571-7.962 7.963 0 4.39 3.577 7.962 7.962 7.962 4.392 0 7.969-3.571 7.969-7.962 0-4.392-3.577-7.963-7.969-7.963z"/></g><g><path d="M37.86 93.81c-3.405 0-6.185-2.774-6.185-6.185 0-3.41 2.78-6.185 6.185-6.185 3.411 0 6.191 2.774 6.191 6.185 0 3.411-2.78 6.186-6.19 6.186zm0-16.664c-5.772 0-10.473 4.7-10.473 10.48 0 5.778 4.7 10.478 10.473 10.478 5.779 0 10.48-4.7 10.48-10.479 0-5.778-4.701-10.479-10.48-10.479z"/></g><g><path d="M96.825 34.594c-4.93 0-8.943-4.007-8.943-8.937 0-1.038.12-2.001.327-2.907 1.513.006 4.368.235 6.644 1.674A10.254 10.254 0 0 0 100.328 26c1.69 0 3.393-.412 4.941-1.243.16-.086.315-.167.47-.247.017.378.023.757.023 1.147 0 4.93-4.007 8.937-8.937 8.937zm2.866 11.052H94.12v-7.04a13.134 13.134 0 0 0 5.572-.034zM93.443 13.83c1.8-2.201 3.634-4.448 4.672-7.108 3.514 3.933 6.06 8.06 7.114 13.294-.573.246-1.261.567-1.995.963-1.932 1.037-4.265.969-6.082-.184-2.402-1.519-5.13-2.075-7.2-2.258.986-1.64 2.224-3.153 3.49-4.707zm16.613 11.827c0-11.764-5.635-18.93-11.729-24.92A2.154 2.154 0 0 0 95.994.29a2.144 2.144 0 0 0-1.319 1.978c0 3.267-2.11 5.853-4.551 8.845-3.061 3.744-6.53 7.985-6.53 14.544 0 4.729 2.494 8.88 6.232 11.218V99.01a7.087 7.087 0 0 0 4.74 6.684 7.06 7.06 0 0 0 2.34.396c.79 0 1.581-.138 2.332-.396a7.087 7.087 0 0 0 4.741-6.684V84.45a2.144 2.144 0 0 0-4.288 0v14.56c0 1.18-.75 2.241-1.868 2.631a2.814 2.814 0 0 1-1.84 0 2.787 2.787 0 0 1-1.864-2.63V49.933h5.572V67.28c0 1.186.958 2.15 2.144 2.15a2.146 2.146 0 0 0 2.144-2.15V36.778c3.652-2.362 6.077-6.46 6.077-11.121z"/></g><g><path d="M101.835 73.724c-.567 0-1.118.223-1.519.625a2.177 2.177 0 0 0-.625 1.519c0 .562.23 1.118.625 1.519.401.395.952.625 1.52.625.561 0 1.117-.23 1.518-.625.396-.401.625-.957.625-1.52 0-.567-.229-1.117-.625-1.518a2.162 2.162 0 0 0-1.519-.625z"/></g></g></g></svg>