<svg xmlns="http://www.w3.org/2000/svg" width="144" height="143" viewBox="0 0 144 143"><g><g><g><path fill="#00d8b7" d="M101.712 106.523c.216 0 .433-.007.642-.007 1.523-.045 2.889.694 3.643 1.993.343.597 1.03 2.157-.03 3.912-9.406 15.49-27.374 25.112-46.896 25.112-29.48 0-53.457-21.679-53.457-48.321 0-26.643 23.978-48.322 53.457-48.322 19.522 0 37.49 9.622 46.896 25.113 1.06 1.754.373 3.314.03 3.904-.754 1.299-2.12 2.045-3.643 2-.209-.007-.426-.007-.642-.007-10.354 0-18.775 7.764-18.775 17.312 0 9.547 8.42 17.311 18.775 17.311zm0-29.032l.47.008a9.642 9.642 0 0 0 8.645-4.77c1.77-3.031 1.732-6.63-.09-9.623C100.331 45.951 80.527 35.3 59.071 35.3c-15.721 0-30.517 5.576-41.655 15.699C6.196 61.188.023 74.759.023 89.212c0 14.452 6.173 28.024 17.393 38.213 11.138 10.123 25.934 15.7 41.655 15.7 21.455 0 41.26-10.653 51.666-27.808 1.822-2.993 1.86-6.592.09-9.622a9.64 9.64 0 0 0-8.645-4.77c-.156.007-.313.007-.47.007-7.271 0-13.183-5.256-13.183-11.72 0-6.465 5.912-11.72 13.183-11.72z"/></g><g><path fill="#00d8b7" d="M26.449 95.87a6.665 6.665 0 0 1-6.659-6.658 6.665 6.665 0 0 1 6.659-6.66 6.665 6.665 0 0 1 6.659 6.66 6.665 6.665 0 0 1-6.659 6.659zm0-18.908c-6.748 0-12.243 5.494-12.243 12.25s5.495 12.25 12.243 12.25c6.756 0 12.25-5.494 12.25-12.25s-5.494-12.25-12.25-12.25z"/></g><g><path fill="#00d8b7" d="M46.672 56.373a6.665 6.665 0 0 1 6.659 6.659 6.665 6.665 0 0 1-6.66 6.659 6.665 6.665 0 0 1-6.658-6.66 6.665 6.665 0 0 1 6.659-6.658zm0 18.909c6.748 0 12.243-5.494 12.243-12.25s-5.495-12.25-12.243-12.25c-6.756 0-12.25 5.494-12.25 12.25s5.494 12.25 12.25 12.25z"/></g><g><path fill="#00d8b7" d="M75.868 68.578a4.788 4.788 0 0 1-4.778-4.785 4.782 4.782 0 0 1 9.563 0 4.79 4.79 0 0 1-4.785 4.785zm0-15.154c-5.71 0-10.37 4.65-10.37 10.369 0 5.718 4.66 10.37 10.37 10.37 5.718 0 10.376-4.652 10.376-10.37 0-5.718-4.658-10.369-10.376-10.369z"/></g><g><path fill="#00d8b7" d="M49.135 122.043c-4.434 0-8.054-3.613-8.054-8.055 0-4.441 3.62-8.055 8.054-8.055 4.442 0 8.063 3.614 8.063 8.055 0 4.442-3.62 8.055-8.063 8.055zm0-21.7c-7.517 0-13.638 6.12-13.638 13.645 0 7.525 6.121 13.647 13.638 13.647 7.525 0 13.647-6.122 13.647-13.647 0-7.524-6.122-13.646-13.647-13.646z"/></g><g><path fill="#00d8b7" d="M125.921 44.929c-6.42 0-11.645-5.218-11.645-11.638 0-1.351.156-2.605.425-3.785 1.971.008 5.689.306 8.652 2.18a13.353 13.353 0 0 0 7.13 2.053c2.202 0 4.419-.538 6.434-1.62.21-.112.41-.217.612-.321.023.492.03.985.03 1.493 0 6.42-5.218 11.638-11.638 11.638zm3.733 14.393h-7.256v-9.168a17.12 17.12 0 0 0 7.256-.045zm-8.137-41.432c2.344-2.866 4.733-5.793 6.084-9.256 4.576 5.12 7.89 10.496 9.264 17.311-.746.321-1.642.74-2.598 1.254-2.516 1.351-5.554 1.262-7.92-.239-3.128-1.978-6.681-2.702-9.376-2.94 1.284-2.136 2.896-4.107 4.546-6.13zm21.634 15.401c0-15.318-7.339-24.65-15.274-32.451a2.806 2.806 0 0 0-3.038-.582 2.792 2.792 0 0 0-1.717 2.575c0 4.255-2.747 7.622-5.927 11.519-3.987 4.875-8.503 10.399-8.503 18.939 0 6.158 3.247 11.563 8.114 14.61v80.913a9.23 9.23 0 0 0 6.174 8.704 9.194 9.194 0 0 0 3.046.516c1.03 0 2.06-.18 3.038-.516a9.23 9.23 0 0 0 6.174-8.704v-18.961a2.792 2.792 0 0 0-5.584 0v18.961a3.636 3.636 0 0 1-2.434 3.427 3.665 3.665 0 0 1-2.396 0 3.63 3.63 0 0 1-2.426-3.427V64.905h7.256v22.59c0 1.545 1.246 2.8 2.792 2.8a2.794 2.794 0 0 0 2.792-2.8V47.773c4.755-3.076 7.913-8.413 7.913-14.482z"/></g><g><path fill="#00d8b7" d="M132.446 95.885c-.74 0-1.456.292-1.978.814a2.835 2.835 0 0 0-.814 1.979c0 .731.298 1.455.813 1.978.523.515 1.24.813 1.979.813.731 0 1.455-.298 1.978-.813a2.848 2.848 0 0 0 .814-1.978c0-.74-.299-1.456-.814-1.979a2.816 2.816 0 0 0-1.978-.814z"/></g></g></g></svg>