<svg xmlns="http://www.w3.org/2000/svg" width="152" height="129" viewBox="0 0 152 129"><g><g><g><g><g><path fill="#00d8b7" d="M32.056 75.347a2.988 2.988 0 0 0-2.1-.87c-.78 0-1.547.317-2.1.87a2.991 2.991 0 0 0-.87 2.1 3 3 0 0 0 .87 2.102 2.99 2.99 0 0 0 2.1.868 2.99 2.99 0 0 0 2.1-.868c.553-.555.87-1.318.87-2.103 0-.78-.317-1.547-.87-2.1z"/></g></g></g><g><g><g><path fill="#00d8b7" d="M60.067 75.347a2.992 2.992 0 0 0-2.1-.87c-.781 0-1.548.317-2.1.87a2.991 2.991 0 0 0-.87 2.1c0 .784.317 1.547.87 2.102a2.99 2.99 0 0 0 2.1.868 2.99 2.99 0 0 0 2.1-.868c.552-.555.87-1.321.87-2.103 0-.78-.318-1.547-.87-2.1z"/></g></g></g><g><g><g><path fill="#00d8b7" d="M54.619 91.657a2.97 2.97 0 0 0-3.637 2.103 7.279 7.279 0 0 1-7.02 5.397 7.28 7.28 0 0 1-7.02-5.397 2.97 2.97 0 0 0-5.74 1.533c1.542 5.773 6.79 9.805 12.76 9.805s11.218-4.032 12.76-9.804a2.971 2.971 0 0 0-2.103-3.637z"/></g></g></g><g><g><g><path fill="#00d8b7" d="M76.041.748a2.97 2.97 0 0 0-2.97 2.97v18.858a2.97 2.97 0 1 0 5.94 0V3.719a2.97 2.97 0 0 0-2.97-2.97z"/></g></g></g><g><g><g><path fill="#00d8b7" d="M78.142 30.972a2.981 2.981 0 0 0-2.1-.87c-.784 0-1.548.315-2.103.87a2.99 2.99 0 0 0-.867 2.1c0 .781.315 1.548.867 2.1a3 3 0 0 0 2.103.87c.781 0 1.548-.318 2.1-.87.552-.553.87-1.319.87-2.1 0-.781-.318-1.547-.87-2.1z"/></g></g></g><g><g><g><path fill="#00d8b7" d="M57.94 27.752l-7.584-7.576a2.97 2.97 0 0 0-4.199 4.202l7.584 7.577c.58.58 1.34.87 2.099.87a2.97 2.97 0 0 0 2.1-5.072z"/></g></g></g><g><g><g><path fill="#00d8b7" d="M105.932 20.183a2.97 2.97 0 0 0-4.2.002l-8.063 8.068a2.97 2.97 0 0 0 4.202 4.2l8.063-8.069a2.97 2.97 0 0 0-.002-4.2z"/></g></g></g><g><g><g><path fill="#00d8b7" d="M117.884 121.753c-20.25 5.425-41.14-6.634-46.566-26.885-2.629-9.81-1.28-20.056 3.798-28.85a38.58 38.58 0 0 1 3.26-4.78c5.026-6.296 11.9-10.812 19.826-12.936 3.284-.88 6.583-1.3 9.832-1.3 16.786 0 32.188 11.218 36.734 28.185 5.427 20.25-6.634 41.14-26.884 46.566zm-73.922 1.316c-20.965 0-38.021-17.056-38.021-38.021s17.056-38.022 38.02-38.022c10.854 0 21.018 4.548 28.232 12.554a44.928 44.928 0 0 0-2.222 3.466c-5.871 10.17-7.431 22.017-4.392 33.36a43.745 43.745 0 0 0 6.63 14.093c-7.215 8.015-17.39 12.57-28.247 12.57zm106.545-49.42c-6.274-23.415-30.427-37.36-53.842-31.085-8.036 2.153-15.136 6.435-20.681 12.363-8.297-8.836-19.78-13.841-32.022-13.841C19.722 41.086 0 60.807 0 85.048c0 24.24 19.721 43.962 43.962 43.962 12.254 0 23.755-5.02 32.055-13.879 8.218 8.715 19.809 13.864 32.036 13.864a43.89 43.89 0 0 0 11.369-1.503c23.414-6.275 37.36-30.428 31.085-53.843z"/></g></g></g><g><g><g><path fill="#00d8b7" d="M99.343 79.204a6.449 6.449 0 0 0-7.891-4.556 6.45 6.45 0 0 0-4.556 7.89 2.972 2.972 0 0 0 3.638 2.101 2.97 2.97 0 0 0 2.1-3.638.503.503 0 0 1 .97-.26 2.97 2.97 0 1 0 5.739-1.537z"/></g></g></g><g><g><g><path fill="#00d8b7" d="M126.23 71.999a6.402 6.402 0 0 0-3.001-3.912 6.4 6.4 0 0 0-4.89-.643 6.398 6.398 0 0 0-3.911 3.001 6.4 6.4 0 0 0-.644 4.89 2.972 2.972 0 0 0 3.639 2.1 2.97 2.97 0 0 0 2.1-3.639.493.493 0 0 1 .05-.38.491.491 0 0 1 .305-.234.495.495 0 0 1 .38.05c.082.047.19.139.234.305a2.97 2.97 0 1 0 5.738-1.538z"/></g></g></g><g><g><g><path fill="#00d8b7" d="M123.628 90.638a2.97 2.97 0 0 0-5.738 1.537c1.01 3.772-1.236 7.663-5.008 8.674a7.035 7.035 0 0 1-5.374-.708 7.034 7.034 0 0 1-3.3-4.3 2.97 2.97 0 1 0-5.738 1.538c.9 3.36 3.055 6.168 6.068 7.907a12.947 12.947 0 0 0 9.882 1.301c6.936-1.858 11.067-9.014 9.208-15.95z"/></g></g></g></g></g></svg>