<svg xmlns="http://www.w3.org/2000/svg" width="105" height="104" viewBox="0 0 105 104"><g><g><g><g><g><path d="M89.763 49.627l-10.56-10.56-2.372 2.373 4.542 4.542v41.256H69.627c-.926 0-1.678.751-1.678 1.678v11.746H52.804a8.276 8.276 0 0 0-1.678-11.746 8.313 8.313 0 0 0 0-13.424 8.365 8.365 0 0 0-4.99-15.102H24.32V45.982l4.543-4.542-2.373-2.373-10.56 10.56L4.88 38.575l15.223-15.222 16.109-2.929c1.097 7.276 8.138 12.908 16.632 12.908 8.494 0 15.535-5.632 16.632-12.908l16.11 2.929 15.229 15.222zM71.305 98.289v-7.695h7.696zm-25.17 2.373H9.22a5.034 5.034 0 1 1 0-10.068h36.916a5.034 5.034 0 1 1 0 10.068zM4.185 82.204a5.034 5.034 0 0 1 5.034-5.034h36.916a5.034 5.034 0 1 1 0 10.068H9.22a5.034 5.034 0 0 1-5.034-5.034zm0-13.424a5.034 5.034 0 0 1 5.034-5.034h36.916a5.034 5.034 0 1 1 0 10.068H9.22a5.034 5.034 0 0 1-5.034-5.034zm48.662-48.612l12.203 3.05a13.69 13.69 0 0 1-12.203 6.758 13.69 13.69 0 0 1-12.202-6.758zm51.527 17.221l-16.78-16.78a1.678 1.678 0 0 0-.886-.463L68.25 16.79a1.678 1.678 0 0 0-1.979 1.65 9.963 9.963 0 0 1-.142 1.59l-11.604-2.9v-.536A8.39 8.39 0 1 0 44.457 8.37h3.356a5.034 5.034 0 1 1 5.034 5.034c-.926 0-1.678.752-1.678 1.678v2.046L39.566 20.03a9.963 9.963 0 0 1-.143-1.59c0-.498-.22-.97-.602-1.29a1.639 1.639 0 0 0-1.376-.36l-18.458 3.356c-.336.06-.645.222-.886.463L1.32 37.39a1.678 1.678 0 0 0 0 2.373l13.424 13.424a1.678 1.678 0 0 0 2.372 0l3.848-3.848V60.39H9.22a8.365 8.365 0 0 0-4.982 15.102 8.313 8.313 0 0 0 0 13.424 8.365 8.365 0 0 0 4.982 15.102h60.408c.445 0 .872-.177 1.187-.492l13.424-13.424c.31-.316.482-.743.476-1.186h.015V49.338l3.848 3.848a1.678 1.678 0 0 0 2.373 0l13.424-13.424a1.678 1.678 0 0 0 0-2.373z"/></g><g><path d="M7.541 70.458v-3.356h40.272v3.356z"/></g><g><path d="M7.541 83.882v-3.356h38.594v3.356z"/></g><g><path d="M7.541 97.306V93.95h38.594v3.356z"/></g></g></g></g></g></svg>