<svg xmlns="http://www.w3.org/2000/svg" width="110" height="99" viewBox="0 0 110 99"><g><g><g><path d="M106.03 33.445H58.668v-7.287h47.36zm-4.61 18.215H63.278l-.856-14.572h39.852zM65.85 95.377l-.855-14.572h34.708l-.856 14.572zm1.927-29.144a14.531 14.531 0 0 0 4.965 10.929H64.78l-1.286-21.859h9.248a14.531 14.531 0 0 0-4.965 10.93zm25.501 0c0 6.035-4.893 10.929-10.929 10.929-6.036 0-10.93-4.894-10.93-10.93 0-6.035 4.894-10.929 10.93-10.929 6.034.006 10.923 4.896 10.93 10.93zm6.64 10.929h-7.962a14.509 14.509 0 0 0 0-21.859h9.248zM69.483 9.125a1.821 1.821 0 0 0-1.706-1.182h-23.68V4.3h27.93l7.59 18.215h-5.114zm38.368 13.39H83.564L74.922 1.777a1.82 1.82 0 0 0-1.68-1.12H42.274a1.822 1.822 0 0 0-1.822 1.821v7.286c0 1.006.816 1.822 1.822 1.822h24.24l4.098 10.93H56.847a1.822 1.822 0 0 0-1.821 1.82v10.93c0 1.006.815 1.822 1.821 1.822h1.926l3.539 60.219a1.821 1.821 0 0 0 1.821 1.714h36.432a1.821 1.821 0 0 0 1.821-1.714l3.54-60.22h1.925a1.822 1.822 0 0 0 1.821-1.82v-10.93a1.822 1.822 0 0 0-1.821-1.822z"/></g><g><path d="M93.278 88.091h-5.464a1.822 1.822 0 0 0 0 3.643h5.464a1.822 1.822 0 0 0 0-3.643z"/></g><g><path d="M80.527 88.091h-1.821a1.822 1.822 0 0 0 0 3.643h1.821a1.822 1.822 0 0 0 0-3.643z"/></g><g><path d="M40.453 55.303c10.052 0 14.573 9.587 14.573 16.394a1.822 1.822 0 0 1-1.822 1.822H5.844a1.822 1.822 0 0 1-1.822-1.822c0-6.59 4.372-16.394 16.394-16.394zm7.982 29.145l-1.66 3.323-12.459-3.323zM5.844 78.983c0-1.006.815-1.821 1.821-1.821h43.718a1.822 1.822 0 0 1 0 3.643H7.664a1.822 1.822 0 0 1-1.821-1.822zm49.182 14.573a1.822 1.822 0 0 1-1.822 1.821H5.844a1.822 1.822 0 0 1-1.822-1.821V86.27c0-1.006.816-1.822 1.822-1.822h14.334l27.092 7.224a1.82 1.82 0 0 0 2.1-.945l3.139-6.279h.695c1.006 0 1.822.816 1.822 1.822zm-1.822 5.465a5.465 5.465 0 0 0 5.465-5.465V86.27a5.453 5.453 0 0 0-2.55-4.607 5.285 5.285 0 0 0 0-5.36 5.453 5.453 0 0 0 2.55-4.606c0-9.85-6.813-20.037-18.216-20.037H20.416C7.26 51.66.379 61.74.379 71.697a5.453 5.453 0 0 0 2.55 4.607 5.285 5.285 0 0 0 0 5.36 5.453 5.453 0 0 0-2.55 4.606v7.286a5.465 5.465 0 0 0 5.465 5.465z"/></g><g><path d="M20.416 62.59h1.822a1.822 1.822 0 0 0 0-3.644h-1.822a1.822 1.822 0 0 0 0 3.643z"/></g><g><path d="M13.13 69.876h1.821a1.822 1.822 0 0 0 0-3.643H13.13a1.822 1.822 0 0 0 0 3.643z"/></g><g><path d="M22.238 68.054c0 1.006.815 1.822 1.821 1.822h1.822a1.822 1.822 0 0 0 0-3.643h-1.822a1.822 1.822 0 0 0-1.821 1.821z"/></g><g><path d="M34.988 69.876h1.822a1.822 1.822 0 0 0 0-3.643h-1.822a1.822 1.822 0 0 0 0 3.643z"/></g><g><path d="M45.918 69.876h1.821a1.822 1.822 0 0 0 0-3.643h-1.821a1.822 1.822 0 0 0 0 3.643z"/></g><g><path d="M29.524 62.59h1.821a1.822 1.822 0 0 0 0-3.644h-1.821a1.822 1.822 0 0 0 0 3.643z"/></g><g><path d="M38.632 62.59h1.821a1.822 1.822 0 0 0 0-3.644h-1.821a1.822 1.822 0 0 0 0 3.643z"/></g></g></g></svg>