<svg xmlns="http://www.w3.org/2000/svg" width="94" height="78" viewBox="0 0 94 78"><g><g><g><path d="M26.437 47.64l-.653-2.44h3.202v2.44zm14.237 7.391a1.12 1.12 0 0 1-2.238 0 1.12 1.12 0 0 1 2.238 0zm-10.096 0a1.12 1.12 0 0 1-2.238 0 1.12 1.12 0 0 1 2.238 0zm-1.592-15.023v2.439h-3.94l-.652-2.439zm5.809 0v2.439h-3.056v-2.439zm7.344 0l-.653 2.439h-3.938v-2.439zm-4.59 7.632V45.2h3.2l-.652 2.44zm-5.81 0V45.2h3.056v2.44zm10.472 2.754l2.779-10.386h.988v-2.754H23.656l-.724-2.707h-6.62v2.754h4.505l4.439 16.612h.495a3.877 3.877 0 0 0 3.708 4.99 3.877 3.877 0 0 0 3.708-4.99h2.681a3.877 3.877 0 0 0 3.708 4.99 3.877 3.877 0 0 0 3.872-3.871 3.877 3.877 0 0 0-3.872-3.873H27.37l-.204-.765z"/></g><g><path d="M73.8 42.1h-7.493v-2.826H73.8zm-3.783-7.316l1.039 1.736h-2.098zm4.247 1.737l-3.092-5.17h-2.289l-3.15 5.17h-2.18v8.333h13V36.52z"/></g><g><path d="M2.754 9.644v-2.51L6.57 3.032h80.858l3.817 4.102v2.51zm88.492 13.154L87.5 26.544h-4.962l-3.745-3.746v-10.4h12.453zm-18.953 3.746H67.33l-3.745-3.746v-10.4H76.04v10.4zm-15.208 0h-4.962l-3.746-3.746v-10.4H60.83v10.4zm-15.208 0h-4.962l-3.746-3.746v-10.4h12.454v10.4zm-15.207 0h-4.963l-3.745-3.746v-10.4h12.454v10.4zm-15.208 0H6.5l-3.746-3.746v-10.4h12.453v10.4zM88.628.278H5.371L0 6.05v17.888l5.359 5.359h7.244l3.981-3.982 3.982 3.982h7.244l3.982-3.982 3.981 3.982h7.245L47 25.316l3.982 3.982h7.244l3.981-3.982 3.982 3.982h7.244l3.982-3.982 3.982 3.982h7.244L94 23.939V6.051z"/></g><g><path d="M89.315 30.493h2.754v35.265h-2.754z"/></g><g><path d="M2.019 30.58h2.754v35.178H2.019z"/></g><g><path d="M14.038 31.593h-2.753l.008 32.418h39.714l-.009-32.828h-2.754l.009 30.075H14.046z"/></g><g><path d="M91.246 70.807v3.751H2.754v-3.751zM82.63 31.593h-2.754v36.459H60.232v-36.46h-2.754v36.46H0v9.26h94v-9.26H82.629z"/></g><g><path d="M78.039 47.05h-2.754v2.753h2.754zm0 4.589h-2.754v2.754h2.754zm0 4.59h-2.754v9.268h2.754z"/></g><g><path d="M28.916 31.507h-2.754v2.754h2.754zm4.59 0h-2.754v2.754h2.754zm12.472 0H35.342v2.754h10.636z"/></g><g><path d="M42.15 5.054h-2.754v2.754h2.754zm4.59 0h-2.754v2.754h2.754zm40.834 0H48.576v2.754h38.998z"/></g></g></g></svg>