<svg xmlns="http://www.w3.org/2000/svg" width="98" height="97" viewBox="0 0 98 97"><g><g><g><path d="M60.823 54.375l2.427-.436c.261-.046.526-.07.79-.07a4.574 4.574 0 0 1 4.315 3.09l7.3 21.687-3.992 1.762-5.835-17.338a11.652 11.652 0 0 0-3.9-5.538l-2.966-2.347a4.531 4.531 0 0 1 1.861-.81zm.706 30.5a.414.414 0 0 1-.384-.017.425.425 0 0 1-.223-.323l-3.784-25.01a4.574 4.574 0 0 1 .055-1.62l2.737 2.163a8.455 8.455 0 0 1 2.832 4.024l5.931 17.627zm-3.807.154a3.665 3.665 0 0 0 5.113 2.808l15.48-6.838a1.618 1.618 0 0 0 .88-2L71.427 55.92a7.821 7.821 0 0 0-8.74-5.179l-2.427.436a7.734 7.734 0 0 0-6.312 8.82z"/></g><g><path d="M3.87 8.929L5.026 4.99a2.488 2.488 0 0 1 3.092-1.685l26.163 7.702c.317.093.612.248.868.456l10.157 8.254-6.186 6.636-7.349-6.126a5.686 5.686 0 0 0-2.047-1.094l-24.17-7.116a2.489 2.489 0 0 1-1.684-3.09zm52.45 17.88l3.801-4.396a2.492 2.492 0 0 1 3.513-.254l17.068 14.78a2.49 2.49 0 0 1 .252 3.51l-1.757 2.032a1.62 1.62 0 0 0-.276 1.673l15.296 37.322a2.159 2.159 0 0 1-1.18 2.816l-8.193 3.359a2.162 2.162 0 0 1-2.819-1.182 1.618 1.618 0 0 0-2.152-.87l-16.817 7.43a6.59 6.59 0 0 1-9.139-4.786L42.671 29.788a1.624 1.624 0 0 0-.553-.937l-.508-.424 6.2-6.649 6.253 5.209c.677.563 1.681.48 2.257-.185zM4.64 15.13l24.168 7.121c.326.097.63.26.892.477l8.524 7.102 1.374 1.149 11.137 57.889a9.825 9.825 0 0 0 13.629 7.135l15.529-6.86a5.405 5.405 0 0 0 6.179 1.515l8.19-3.36a5.398 5.398 0 0 0 2.95-7.04L82.293 43.845l1.107-1.278a5.732 5.732 0 0 0-.58-8.074L65.752 19.706a5.726 5.726 0 0 0-8.081.583l-2.76 3.193-6.204-5.168h-.01l-11.49-9.347a5.692 5.692 0 0 0-1.998-1.05L9.03.2a5.727 5.727 0 0 0-7.105 3.874L.766 8.009a5.725 5.725 0 0 0 3.875 7.121z"/></g><g><path d="M11.823 28.886c2.855 3.292 8.092 11.628 8.092 15.375a7.826 7.826 0 0 1-8.092 8.092 7.826 7.826 0 0 1-8.092-8.092c0-3.745 5.238-12.081 8.092-15.375zm0 26.704a11.081 11.081 0 0 0 11.328-11.33c0-5.158-6.27-14.475-8.883-17.49a3.335 3.335 0 0 0-4.89 0C6.764 29.785.494 39.102.494 44.26a11.082 11.082 0 0 0 11.33 11.33z"/></g><g><path d="M46.893 30.15a1.619 1.619 0 0 0-1.168 1.973l.809 3.17a1.62 1.62 0 0 0 3.137-.802l-.81-3.17a1.619 1.619 0 0 0-1.968-1.171z"/></g><g><path d="M48.279 40.588l2.293 9.71a1.619 1.619 0 0 0 3.153-.74l-2.293-9.71a1.62 1.62 0 0 0-3.153.744z"/></g></g></g></svg>