<svg xmlns="http://www.w3.org/2000/svg" width="156" height="159" viewBox="0 0 156 159"><g><g><path fill="none" stroke="#00d8b7" stroke-miterlimit="50" stroke-width="4" d="M83.434 98.514c-4.167 0-8.117-.945-11.65-2.63l.002-.001a27.304 27.304 0 0 1-9.46-7.478l-.005.005a27.014 27.014 0 0 1-6.032-17.04c0-6.336-3.93-11.769-9.48-13.997a39.009 39.009 0 0 0-2.584 13.997c0 9.268 3.235 17.794 8.632 24.513a26.972 26.972 0 0 1-11.648 2.631c-14.968 0-27.145-12.177-27.145-27.144 0-14.968 12.177-27.145 27.145-27.145S68.354 56.402 68.354 71.37c0 6.336 3.93 11.769 9.479 13.997a39.005 39.005 0 0 0 2.585-13.997c0-9.267-3.234-17.792-8.629-24.51a26.963 26.963 0 0 1 11.645-2.635c14.968 0 27.145 12.177 27.145 27.145 0 14.967-12.177 27.144-27.145 27.144zM116.309 2v12.064h16.628L106.97 40.031a39.004 39.004 0 0 0-23.536-7.87 38.969 38.969 0 0 0-21.11 6.184 38.977 38.977 0 0 0-21.115-6.184C19.589 32.16 2 49.75 2 71.37c0 19.463 14.257 35.658 32.875 38.694v18.31H18.287v12.064h16.588v15.985H46.94v-15.985h16.588v-12.064H46.94V110.16a38.948 38.948 0 0 0 15.379-5.766 38.975 38.975 0 0 0 21.115 6.185c21.62 0 39.21-17.59 39.21-39.21a38.995 38.995 0 0 0-7.255-22.696l26.557-26.556V39.7h12.064V2z"/></g></g></svg>