<svg xmlns="http://www.w3.org/2000/svg" width="101" height="135" viewBox="0 0 101 135"><g><g><g><g><path fill="#00d8b7" d="M68.013 124.808c2.876-3.923 4.655-8.772 4.655-14.091 0-.652-.04-1.259-.121-2.392-.658-9.047-4.59-14.638-8.062-19.57-2.957-4.2-5.51-7.83-5.51-12.976a2.77 2.77 0 0 0-4.44-2.211c-5.315 4.016-9.747 10.775-11.295 17.23-.79 3.31-1.066 6.89-1.164 9.833-1.921-2.067-2.517-5.899-2.522-5.95a2.776 2.776 0 0 0-4.01-2.092c-.698.357-6.833 3.875-7.185 16.816-.024.438-.027.876-.027 1.312 0 5.32 1.78 10.168 4.656 14.09-15.76-6.804-26.824-22.487-26.824-40.715 0-.83-.003-1.659.054-2.582.476-16.61 5.791-24.847 9.26-28.481 2.42 8.66 8.757 19.979 21.167 19.979a2.77 2.77 0 0 0 2.772-2.771c0-9.274.208-19.99 2.687-29.803 2.814-11.116 10.524-23.12 19.83-31.247 1.545 11.87 8.01 20.572 14.805 29.716 8.078 10.873 16.429 22.116 17.828 40.323l.095 1.326c.086 1.153.175 2.303.175 3.54 0 18.228-11.065 33.91-26.824 40.716zm-17.513 3.62c-9.168 0-16.626-7.945-16.626-17.711 0-.333-.003-.669.021-1.08.111-4.118.893-6.93 1.751-8.8 1.608 3.453 4.484 6.627 9.15 6.627a2.77 2.77 0 0 0 2.77-2.771c0-3.946.082-8.497 1.064-12.605.875-3.645 2.963-7.518 5.61-10.624 1.177 4.032 3.472 7.295 5.713 10.48 3.207 4.558 6.521 9.269 7.103 17.303.035.476.07.955.07 1.47 0 9.766-7.458 17.711-16.626 17.711zm49.69-48.29l-.096-1.301C98.571 59 89.335 46.567 81.187 35.598c-7.545-10.156-14.06-18.926-14.06-31.867 0-1.039-.583-1.988-1.505-2.465a2.744 2.744 0 0 0-2.88.211C50.505 10.234 40.295 24.993 36.73 39.076c-2.476 9.804-2.804 20.826-2.85 28.105-11.3-2.414-13.86-19.319-13.887-19.503a2.786 2.786 0 0 0-1.443-2.056 2.759 2.759 0 0 0-2.511-.046c-.593.287-14.545 7.377-15.357 35.688a46.84 46.84 0 0 0-.06 2.827c0 27.503 22.377 49.88 49.879 49.88s49.879-22.377 49.879-49.88c0-1.38-.095-2.667-.19-3.953z"/><path fill="none" stroke="#fff" stroke-miterlimit="50" d="M68.013 124.808c2.876-3.923 4.655-8.772 4.655-14.091 0-.652-.04-1.259-.121-2.392-.658-9.047-4.59-14.638-8.062-19.57-2.957-4.2-5.51-7.83-5.51-12.976a2.77 2.77 0 0 0-4.44-2.211c-5.315 4.016-9.747 10.775-11.295 17.23-.79 3.31-1.066 6.89-1.164 9.833-1.921-2.067-2.517-5.899-2.522-5.95a2.776 2.776 0 0 0-4.01-2.092c-.698.357-6.833 3.875-7.185 16.816-.024.438-.027.876-.027 1.312 0 5.32 1.78 10.168 4.656 14.09-15.76-6.804-26.824-22.487-26.824-40.715 0-.83-.003-1.659.054-2.582.476-16.61 5.791-24.847 9.26-28.481 2.42 8.66 8.757 19.979 21.167 19.979a2.77 2.77 0 0 0 2.772-2.771c0-9.274.208-19.99 2.687-29.803 2.814-11.116 10.524-23.12 19.83-31.247 1.545 11.87 8.01 20.572 14.805 29.716 8.078 10.873 16.429 22.116 17.828 40.323l.095 1.326c.086 1.153.175 2.303.175 3.54 0 18.228-11.065 33.91-26.824 40.716zm-17.513 3.62c-9.168 0-16.626-7.945-16.626-17.711 0-.333-.003-.669.021-1.08.111-4.118.893-6.93 1.751-8.8 1.608 3.453 4.484 6.627 9.15 6.627a2.77 2.77 0 0 0 2.77-2.771c0-3.946.082-8.497 1.064-12.605.875-3.645 2.963-7.518 5.61-10.624 1.177 4.032 3.472 7.295 5.713 10.48 3.207 4.558 6.521 9.269 7.103 17.303.035.476.07.955.07 1.47 0 9.766-7.458 17.711-16.626 17.711zm49.69-48.29l-.096-1.301C98.571 59 89.335 46.567 81.187 35.598c-7.545-10.156-14.06-18.926-14.06-31.867 0-1.039-.583-1.988-1.505-2.465a2.744 2.744 0 0 0-2.88.211C50.505 10.234 40.295 24.993 36.73 39.076c-2.476 9.804-2.804 20.826-2.85 28.105-11.3-2.414-13.86-19.319-13.887-19.503a2.786 2.786 0 0 0-1.443-2.056 2.759 2.759 0 0 0-2.511-.046c-.593.287-14.545 7.377-15.357 35.688a46.84 46.84 0 0 0-.06 2.827c0 27.503 22.377 49.88 49.879 49.88s49.879-22.377 49.879-49.88c0-1.38-.095-2.667-.19-3.953z"/></g></g></g></g></svg>