<svg xmlns="http://www.w3.org/2000/svg" width="96" height="96" viewBox="0 0 96 96"><g><g><g><g><g><path d="M69.85 26.92a1.861 1.861 0 0 0-1.306-.541c-.486 0-.963.198-1.307.541a1.859 1.859 0 0 0-.541 1.307c0 .486.197.963.541 1.307.344.343.82.541 1.307.541.486 0 .963-.198 1.306-.541.344-.344.542-.821.542-1.307s-.198-.963-.542-1.307z"/></g></g></g><g><g><g><path d="M26.41 67.59H15.32V56.5H26.41zm1.847-14.785H13.473c-1.02 0-1.848.828-1.848 1.848v14.784c0 1.021.828 1.848 1.848 1.848h14.784c1.02 0 1.848-.827 1.848-1.848V54.653c0-1.02-.827-1.848-1.848-1.848z"/></g></g></g><g><g><g><path d="M91.459 91.613H45.47l7.052-7.052 1.764 1.764c.361.361.834.542 1.307.542s.946-.18 1.307-.542a1.848 1.848 0 0 0 0-2.613l-1.764-1.764 4.704-4.705 1.764 1.764c.36.361.834.542 1.307.542s.945-.181 1.306-.542a1.848 1.848 0 0 0 0-2.613l-1.764-1.764 4.704-4.704 1.765 1.764c.36.36.833.54 1.306.54a1.848 1.848 0 0 0 1.307-3.155l-1.764-1.763 4.704-4.704 1.764 1.764c.361.36.834.541 1.307.541s.946-.18 1.307-.541a1.848 1.848 0 0 0 0-2.614l-1.765-1.764 4.705-4.704 1.764 1.764c.36.36.833.541 1.306.541a1.848 1.848 0 0 0 1.307-3.155l-1.764-1.764 7.053-7.052zm2.555-52.157a1.848 1.848 0 0 0-2.014.4l-18.83 18.83-.002.002-21.952 21.953h-.001L39.702 92.156a1.849 1.849 0 0 0 1.306 3.154h52.299c1.02 0 1.848-.827 1.848-1.848V41.163c0-.747-.45-1.421-1.14-1.707z"/></g></g></g><g><g><g><path d="M82.219 82.373H67.778l14.44-14.441zm2.555-20.61a1.848 1.848 0 0 0-2.014.4L62.01 82.915a1.848 1.848 0 0 0 1.306 3.154h20.75c1.021 0 1.849-.827 1.849-1.848v-20.75c0-.748-.45-1.422-1.14-1.708z"/></g></g></g><g><g><g><path d="M79.463 38.792l-3.87-3.87 6.106-2.235zM41.229 78.541l-1.164 1.163a3.782 3.782 0 0 1-2.692 1.115 3.781 3.781 0 0 1-2.692-1.115 3.781 3.781 0 0 1-1.115-2.691c0-1.017.396-1.973 1.115-2.692l1.164-1.164zM86.11 28.275a1.848 1.848 0 0 0-1.942-.428l-12.619 4.62a1.85 1.85 0 0 0-.671.429l-3.548 3.548-23.168-23.168a1.849 1.849 0 0 0-2.613 0L13.663 41.163H6.847l36.01-36.01 19.76 19.76a1.848 1.848 0 0 0 2.614-2.613L44.163 1.233a1.848 1.848 0 0 0-2.613 0L1.079 41.704a1.849 1.849 0 0 0 1.306 3.155h1.848v48.602c0 1.021.828 1.848 1.848 1.848h29.38a1.848 1.848 0 0 0 0-3.696H7.93V44.86h6.5c.49 0 .96-.195 1.306-.541l27.121-27.122 21.861 21.861-27.405 27.405V49.85h12.936a1.848 1.848 0 0 0 0-3.696H35.464c-1.02 0-1.848.827-1.848 1.848v21.436c0 .216.04.422.107.614l-1.656 1.656c-2.925 2.925-2.925 7.685 0 10.61a7.478 7.478 0 0 0 5.306 2.195 7.48 7.48 0 0 0 5.305-2.194l15.585-15.585a1.848 1.848 0 0 0-2.614-2.613L43.842 75.927l-5.384-5.384L72.223 36.78l5.383 5.384-12.902 12.902a1.848 1.848 0 0 0 2.614 2.613L81.49 43.507c.19-.19.336-.42.428-.671l4.621-12.619a1.848 1.848 0 0 0-.428-1.942z"/></g></g></g><g><g><g><path d="M62.757 59.625a1.861 1.861 0 0 0-1.306-.542c-.486 0-.963.198-1.306.542-.344.345-.542.82-.542 1.306 0 .488.198.963.542 1.308.343.344.818.54 1.306.54a1.86 1.86 0 0 0 1.306-.54 1.87 1.87 0 0 0 .542-1.308c0-.486-.198-.96-.542-1.306z"/></g></g></g><g><g><g><path d="M42.856 38.945a3.33 3.33 0 0 1-3.326-3.326 3.33 3.33 0 0 1 3.326-3.326 3.33 3.33 0 0 1 3.327 3.326 3.33 3.33 0 0 1-3.327 3.326zm0-10.348a7.03 7.03 0 0 0-7.022 7.022 7.03 7.03 0 0 0 7.022 7.022 7.03 7.03 0 0 0 7.023-7.022 7.03 7.03 0 0 0-7.023-7.022z"/></g></g></g></g></g></svg>