<svg xmlns="http://www.w3.org/2000/svg" width="1045" height="108" viewBox="0 0 1045 108"><defs><linearGradient id="ex1ea" x1="34.51" x2="1020" y1="55.75" y2="55.75" gradientUnits="userSpaceOnUse"><stop offset="0" stop-color="#00d8b7"/><stop offset="1" stop-color="#006c5c"/></linearGradient><clipPath id="ex1eb"><path fill="#fff" d="M0 48V0h48v48zm24-8c8.837 0 16-7.163 16-16S32.837 8 24 8 8 15.163 8 24s7.163 16 16 16z"/></clipPath><clipPath id="ex1ec"><path fill="#fff" d="M498 108V60h48v48zm24-8c8.837 0 16-7.163 16-16s-7.163-16-16-16-16 7.163-16 16 7.163 16 16 16z"/></clipPath><clipPath id="ex1ed"><path fill="#fff" d="M997 108V60h48v48zm24-8c8.837 0 16-7.163 16-16s-7.163-16-16-16-16 7.163-16 16 7.163 16 16 16z"/></clipPath></defs><g><g><path fill="url(#ex1ea)" d="M34.514 20.513L108.167 77H1020v14H108.633l-74.12-56.487z"/></g><g><path fill="#fff" d="M8 24c0-8.837 7.163-16 16-16s16 7.163 16 16-7.163 16-16 16S8 32.837 8 24z"/><path fill="none" stroke="#292929" stroke-miterlimit="50" stroke-width="16" d="M8 24c0-8.837 7.163-16 16-16s16 7.163 16 16-7.163 16-16 16S8 32.837 8 24z" clip-path="url(&quot;#ex1eb&quot;)"/></g><g><path fill="#fff" d="M506 84c0-8.837 7.163-16 16-16s16 7.163 16 16-7.163 16-16 16-16-7.163-16-16z"/><path fill="none" stroke="#292929" stroke-miterlimit="50" stroke-width="16" d="M506 84c0-8.837 7.163-16 16-16s16 7.163 16 16-7.163 16-16 16-16-7.163-16-16z" clip-path="url(&quot;#ex1ec&quot;)"/></g><g><path fill="#fff" d="M1005 84c0-8.837 7.163-16 16-16s16 7.163 16 16-7.163 16-16 16-16-7.163-16-16z"/><path fill="none" stroke="#292929" stroke-miterlimit="50" stroke-width="16" d="M1005 84c0-8.837 7.163-16 16-16s16 7.163 16 16-7.163 16-16 16-16-7.163-16-16z" clip-path="url(&quot;#ex1ed&quot;)"/></g></g></svg>