<svg xmlns="http://www.w3.org/2000/svg" width="1045" height="48" viewBox="0 0 1045 48"><defs><linearGradient id="xpbya" x1="24" x2="1020" y1="24" y2="24" gradientUnits="userSpaceOnUse"><stop offset="0" stop-color="#00d8b7"/><stop offset="1" stop-color="#006c5c"/></linearGradient><clipPath id="xpbyb"><path fill="#fff" d="M0 48V0h48v48zm24-8c8.837 0 16-7.163 16-16S32.837 8 24 8 8 15.163 8 24s7.163 16 16 16z"/></clipPath><clipPath id="xpbyc"><path fill="#fff" d="M498 48V0h48v48zm24-8c8.837 0 16-7.163 16-16s-7.163-16-16-16-16 7.163-16 16 7.163 16 16 16z"/></clipPath><clipPath id="xpbyd"><path fill="#fff" d="M997 48V0h48v48zm24-8c8.837 0 16-7.163 16-16s-7.163-16-16-16-16 7.163-16 16 7.163 16 16 16z"/></clipPath></defs><g><g><path fill="url(#xpbya)" d="M24 31V17h996v14z"/></g><g><path fill="#fff" d="M8 24c0-8.837 7.163-16 16-16s16 7.163 16 16-7.163 16-16 16S8 32.837 8 24z"/><path fill="none" stroke="#292929" stroke-miterlimit="50" stroke-width="16" d="M8 24c0-8.837 7.163-16 16-16s16 7.163 16 16-7.163 16-16 16S8 32.837 8 24z" clip-path="url(&quot;#xpbyb&quot;)"/></g><g><path fill="#fff" d="M506 24c0-8.837 7.163-16 16-16s16 7.163 16 16-7.163 16-16 16-16-7.163-16-16z"/><path fill="none" stroke="#292929" stroke-miterlimit="50" stroke-width="16" d="M506 24c0-8.837 7.163-16 16-16s16 7.163 16 16-7.163 16-16 16-16-7.163-16-16z" clip-path="url(&quot;#xpbyc&quot;)"/></g><g><path fill="#fff" d="M1005 24c0-8.837 7.163-16 16-16s16 7.163 16 16-7.163 16-16 16-16-7.163-16-16z"/><path fill="none" stroke="#292929" stroke-miterlimit="50" stroke-width="16" d="M1005 24c0-8.837 7.163-16 16-16s16 7.163 16 16-7.163 16-16 16-16-7.163-16-16z" clip-path="url(&quot;#xpbyd&quot;)"/></g></g></svg>