<svg xmlns="http://www.w3.org/2000/svg" width="105" height="105" viewBox="0 0 105 105"><g><g><g><g><g><path d="M51.367 88.825a2.06 2.06 0 0 0-1.446-.6c-.537 0-1.065.22-1.445.6-.38.38-.599.907-.599 1.445a2.05 2.05 0 0 0 2.044 2.044 2.05 2.05 0 0 0 1.446-.599c.38-.38.599-.907.599-1.445a2.06 2.06 0 0 0-.6-1.445z"/></g></g></g><g><g><g><path d="M61.1 74.251a5.132 5.132 0 0 1 3.08 4.698c0 2.1-1.27 3.908-3.08 4.699zM57.01 99.947l-31.502-12.67V70.64l22.368-9.008v20.286a2.044 2.044 0 0 0 4.089 0V59.985l5.045-2.032zM21.42 86.608h-9.696c-4.22 0-7.652-3.432-7.652-7.652 0-4.219 3.432-7.652 7.652-7.652h9.697zm-4.257 14.32V90.697h4.257v10.231zM61.1 69.968V54.927a2.044 2.044 0 0 0-2.808-1.897L23.068 67.216H11.723c-6.473 0-11.74 5.267-11.74 11.74 0 6.474 5.267 11.74 11.74 11.74h1.352v12.276c0 1.129.915 2.044 2.044 2.044h8.345a2.044 2.044 0 0 0 2.044-2.044V91.683l32.784 13.186a2.042 2.042 0 0 0 2.807-1.897v-15.04c4.1-.933 7.17-4.605 7.17-8.982 0-4.378-3.07-8.05-7.17-8.982z"/></g></g></g><g><g><g><path d="M87.769 76.966H76.195a2.044 2.044 0 0 0 0 4.088H87.77a2.044 2.044 0 0 0 0-4.088z"/></g></g></g><g><g><g><path d="M78.277 61.987a2.045 2.045 0 0 0-2.89 0l-3.993 3.992a2.044 2.044 0 0 0 2.891 2.891l3.992-3.992a2.044 2.044 0 0 0 0-2.89z"/></g></g></g><g><g><g><path d="M78.427 92.951l-4.125-4.126a2.045 2.045 0 0 0-2.891 2.891l4.126 4.126c.399.4.922.599 1.445.599s1.046-.2 1.445-.599a2.044 2.044 0 0 0 0-2.89z"/></g></g></g><g><g><g><path d="M100.554 32.246a4.093 4.093 0 0 1-4.088 4.088h-38.02a4.093 4.093 0 0 1-4.089-4.088V8.534a4.093 4.093 0 0 1 4.088-4.089h38.021a4.093 4.093 0 0 1 4.088 4.089zM70.665 46.554c0 .451-.367.818-.817.818H28.397c-.542 0-1.062.216-1.446.599l-4.823 4.823v-3.378a2.044 2.044 0 0 0-2.044-2.044h-4.156a.818.818 0 0 1-.818-.818V14.257c0-.45.367-.817.818-.817h34.34v18.806c0 4.508 3.669 8.176 8.177 8.176h12.22zM96.466.357h-38.02c-4.51 0-8.177 3.668-8.177 8.177v.817H15.928a4.911 4.911 0 0 0-4.906 4.906v32.297c0 2.705 2.2 4.906 4.906 4.906h2.112v6.269a2.044 2.044 0 0 0 3.49 1.445l7.713-7.714h40.605c2.705 0 4.905-2.2 4.905-4.906v-6.132h21.713c4.509 0 8.177-3.668 8.177-8.176V8.534c0-4.509-3.668-8.177-8.177-8.177z"/></g></g></g><g><g><g><path d="M72.7 24.926v-9.073l7.858 4.537zm12.968-6.307l-13.99-8.077a2.043 2.043 0 0 0-3.066 1.77v16.155a2.044 2.044 0 0 0 3.066 1.77l13.99-8.077a2.044 2.044 0 0 0 0-3.54z"/></g></g></g><g><g><g><path d="M43.832 21.82H23.391a2.044 2.044 0 0 0 0 4.089h20.441a2.044 2.044 0 0 0 0-4.089z"/></g></g></g><g><g><g><path d="M45.277 33.867a2.059 2.059 0 0 0-1.445-.6c-.538 0-1.065.22-1.445.6a2.06 2.06 0 0 0-.6 1.445c0 .537.22 1.065.6 1.445.38.38.907.599 1.445.599.54 0 1.065-.219 1.445-.6.38-.38.6-.907.6-1.444a2.06 2.06 0 0 0-.6-1.445z"/></g></g></g><g><g><g><path d="M36.164 33.268H23.391a2.044 2.044 0 0 0 0 4.088h12.773a2.044 2.044 0 0 0 0-4.088z"/></g></g></g></g></g></svg>