<svg xmlns="http://www.w3.org/2000/svg" width="91" height="90" viewBox="0 0 91 90"><g><g><g><g><g><path d="M41.448 66.543a4.397 4.397 0 1 1 8.793 0 4.397 4.397 0 0 1-8.793 0z"/></g><g><path d="M45.845 82.986C24.85 82.986 7.859 65.996 7.859 45c0-20.994 16.99-37.986 37.986-37.986C66.839 7.014 83.83 24.004 83.83 45c0 20.994-16.99 37.986-37.986 37.986zm0-83.007C20.963-.02.825 20.115.825 45c0 24.882 20.135 45.02 45.02 45.02 24.881 0 45.02-20.135 45.02-45.02 0-24.882-20.135-45.02-45.02-45.02z"/></g><g><path d="M45.845 22.578c-7.758 0-14.07 6.311-14.07 14.069a3.517 3.517 0 1 0 7.035 0 7.042 7.042 0 0 1 7.035-7.035 7.042 7.042 0 0 1 7.034 7.035 7.042 7.042 0 0 1-7.034 7.034 3.517 3.517 0 0 0-3.518 3.517v8.793a3.517 3.517 0 1 0 7.035 0v-5.72c6.061-1.566 10.552-7.08 10.552-13.624 0-7.758-6.312-14.07-14.07-14.07z"/></g></g></g></g></g></svg>