<svg xmlns="http://www.w3.org/2000/svg" width="103" height="100" viewBox="0 0 103 100"><g><g><g><path d="M3.422 15.333h96.61V65.17H3.422zm85.853 81.554h-7.382V67.763h7.382zm-67.714 0H14.18V67.763h7.382zM2.125 67.763h9.46v30.42c0 .716.581 1.297 1.298 1.297h9.975c.716 0 1.297-.58 1.297-1.297v-30.42h55.144v30.42c0 .716.581 1.297 1.297 1.297h9.976c.716 0 1.297-.58 1.297-1.297v-30.42h9.46c.717 0 1.297-.581 1.297-1.297v-52.43c0-.716-.58-1.296-1.297-1.296H77.933l5.71-9.68h4.83v4.756h-3.83a1.297 1.297 0 1 0 0 2.594h4.835c.192.045.39.045.582 0h4.835a1.297 1.297 0 0 0 0-2.594h-3.829V1.763c0-.716-.58-1.297-1.297-1.297h-6.867c-.459 0-.884.243-1.117.638L74.921 12.74H44.38l5.71-9.68h4.83v4.756h-3.829a1.297 1.297 0 0 0 0 2.594h4.835c.191.045.39.045.581 0h4.836a1.297 1.297 0 0 0 0-2.594h-3.83V1.763c0-.716-.58-1.297-1.296-1.297H49.35c-.459 0-.884.243-1.117.638L41.37 12.74H13.042l5.71-9.68h4.83v4.756h-3.83a1.297 1.297 0 0 0 0 2.594h4.836c.19.045.39.045.581 0h4.835a1.297 1.297 0 0 0 0-2.594h-3.829V1.763c0-.716-.58-1.297-1.297-1.297h-6.867c-.458 0-.883.243-1.116.638L10.03 12.74H2.125c-.716 0-1.297.58-1.297 1.296v52.43c0 .716.58 1.297 1.297 1.297z"/></g><g><path d="M93.598 58.019H9.856V22.483h83.742zm1.297-38.13H8.56c-.716 0-1.297.58-1.297 1.297v38.13c0 .716.581 1.296 1.297 1.296h86.336c.716 0 1.297-.58 1.297-1.296v-38.13c0-.717-.58-1.297-1.297-1.297z"/></g><g><path d="M15.731 40.611l.711-2.609.71 2.61zm-1.507 3.416c.374 0 .623-.148.7-.418l.375-1.38h2.297l.376 1.38c.077.27.324.418.699.418.52 0 1.275-.333 1.275-.855a.693.693 0 0 0-.028-.16l-2.183-7.121c-.13-.415-.638-.683-1.294-.683-.655 0-1.163.268-1.294.683l-2.172 7.128a.668.668 0 0 0-.026.151c0 .524.756.857 1.275.857z"/></g><g><path d="M24.319 41.164c0 .703-.317 1.06-.943 1.06h-.931v-5.142h.93c.626 0 .943.356.943 1.059zm-3.01 2.863h2.066c1.922 0 2.98-1.016 2.98-2.863V38.14c0-1.846-1.06-2.863-2.98-2.863H21.31c-.514 0-.901.282-.901.657v7.435c0 .374.387.657.901.657z"/></g><g><path d="M28.923 43.414c.13.415.638.683 1.293.683.656 0 1.164-.268 1.295-.684l2.172-7.125a.668.668 0 0 0 .027-.155c0-.522-.757-.855-1.276-.855-.373 0-.622.148-.699.418l-1.519 5.605-1.531-5.606c-.077-.269-.324-.417-.7-.417-.52 0-1.275.333-1.275.855a.67.67 0 0 0 .027.155z"/></g><g><path d="M35.07 44.027h4.157c.45 0 .656-.462.656-.89 0-.538-.27-.914-.656-.914h-3.02v-1.768h1.643c.432 0 .657-.401.657-.797 0-.475-.276-.82-.657-.82h-1.643v-1.756h3.02c.387 0 .657-.376.657-.914 0-.429-.205-.89-.656-.89H35.07c-.434 0-.902.209-.902.668v7.413c0 .459.468.668.902.668z"/></g><g><path d="M42.498 39.036v-1.954h1.047c.66 0 .943.292.943.977s-.281.977-.943.977zm-1.019 4.99c.49 0 1.019-.208 1.019-.668v-2.705h.596l1.57 3.048a.73.73 0 0 0 .679.397c.608 0 1.252-.54 1.252-1.054a.48.48 0 0 0-.072-.262l-1.366-2.474c.883-.393 1.368-1.248 1.368-2.423 0-1.73-1.003-2.606-2.98-2.606H41.13a.649.649 0 0 0-.669.657v7.423c0 .459.528.668 1.02.668z"/></g><g><path d="M47.304 37.128h1.502v6.23c0 .46.528.669 1.019.669.49 0 1.018-.21 1.018-.668v-6.23h1.503c.387 0 .657-.386.657-.938 0-.454-.203-.913-.657-.913h-5.042c-.454 0-.657.459-.657.913 0 .552.27.937.657.937z"/></g><g><path d="M54.529 44.027c.49 0 1.018-.21 1.018-.669v-7.423c0-.4-.4-.657-1.018-.657-.62 0-1.019.258-1.019.657v7.424c0 .459.528.668 1.019.668z"/></g><g><path d="M59.07 42.293a1.94 1.94 0 0 1-1.271-.519 1.23 1.23 0 0 0-.713-.346c-.524 0-.902.65-.902 1.089 0 .866 1.365 1.625 2.92 1.625 1.868 0 3.027-1.034 3.027-2.699 0-1.875-1.464-2.52-2.534-2.992-.651-.287-1.167-.514-1.167-.895 0-.365.406-.592 1.06-.592.378-.008.753.087 1.082.276.155.099.333.156.517.168.587 0 .831-.694.831-1.066 0-1.08-2.025-1.135-2.43-1.135-1.43 0-3.097.661-3.097 2.524 0 1.658 1.31 2.266 2.362 2.755.718.334 1.338.622 1.338 1.144 0 .49-.551.663-1.024.663z"/></g><g><path d="M63.832 44.027c.49 0 1.018-.21 1.018-.669v-4.07l.905 1.657c.123.255.386.411.668.397.288.01.558-.14.7-.392l.92-1.57v3.979c0 .459.528.668 1.018.668s1.019-.21 1.019-.668v-7.062a.947.947 0 0 0-1.019-1.019c-.68 0-1.006.087-1.506.965l-1.108 1.937-1.109-1.937c-.5-.878-.826-.965-1.506-.965a.947.947 0 0 0-1.019 1.019v7.062c0 .459.528.668 1.019.668z"/></g><g><path d="M72.025 44.027h4.156c.451 0 .656-.462.656-.89 0-.538-.27-.914-.656-.914h-3.02v-1.768h1.642c.431 0 .657-.401.657-.797 0-.475-.276-.82-.657-.82h-1.642v-1.756h3.02c.386 0 .656-.376.656-.914 0-.429-.205-.89-.656-.89h-4.156c-.434 0-.901.209-.901.668v7.413c0 .459.468.668.901.668z"/></g><g><path d="M78.433 44.027c.491 0 1.019-.21 1.019-.669v-3.547l2.015 3.67c.261.48.708.546 1.11.546.49 0 1.019-.21 1.019-.669v-7.423c0-.4-.4-.657-1.019-.657-.619 0-1.019.258-1.019.657v3.53l-1.687-3.218c-.463-.89-.747-.969-1.439-.969-.506 0-1.018.207-1.018.669v7.412c0 .459.529.668 1.02.668z"/></g><g><path d="M84.76 37.128h1.503v6.23c0 .46.527.669 1.018.669.49 0 1.019-.21 1.019-.668v-6.23h1.502c.387 0 .657-.386.657-.938 0-.454-.203-.913-.657-.913H84.76c-.454 0-.657.459-.657.913 0 .552.27.937.657.937z"/></g></g></g></svg>