<svg xmlns="http://www.w3.org/2000/svg" width="117" height="120" viewBox="0 0 117 120"><g><g><g><path fill="#00d8b7" d="M91.518 86.348c.003-.194.014-.387.014-.582 0-18.287-14.878-33.165-33.165-33.165C40.079 52.6 25.2 67.479 25.2 85.766c0 .195.012.387.015.582H8.16V35.753h100.413v50.595zm-33.151 25.608c-14.441 0-26.19-11.749-26.19-26.19 0-14.44 11.749-26.19 26.19-26.19 14.44 0 26.19 11.749 26.19 26.19 0 14.442-11.749 26.19-26.19 26.19zM28.393 14.514v3.152a3.488 3.488 0 0 0 6.976 0v-3.152h19.51v3.152a3.488 3.488 0 0 0 6.976 0v-3.152H82.23v3.152a3.488 3.488 0 0 0 6.976 0v-3.152h19.366v14.263H8.161V14.514zm83.668-6.976H89.207v-3.44a3.488 3.488 0 0 0-6.976 0v3.44H61.855v-3.44a3.488 3.488 0 0 0-6.976 0v3.44H35.37v-3.44a3.488 3.488 0 0 0-6.976 0v3.44H4.673a3.488 3.488 0 0 0-3.488 3.488v78.81a3.488 3.488 0 0 0 3.488 3.487H26.08c3.43 14.658 16.6 25.609 32.287 25.609 15.687 0 28.856-10.952 32.286-25.609h21.408a3.488 3.488 0 0 0 3.488-3.487v-78.81a3.487 3.487 0 0 0-3.488-3.488z"/><path fill="none" stroke="#fff" stroke-miterlimit="50" d="M91.518 86.348c.003-.194.014-.387.014-.582 0-18.287-14.878-33.165-33.165-33.165C40.079 52.6 25.2 67.479 25.2 85.766c0 .195.012.387.015.582H8.16V35.753h100.413v50.595zm-33.151 25.608c-14.441 0-26.19-11.749-26.19-26.19 0-14.44 11.749-26.19 26.19-26.19 14.44 0 26.19 11.749 26.19 26.19 0 14.442-11.749 26.19-26.19 26.19zM28.393 14.514v3.152a3.488 3.488 0 0 0 6.976 0v-3.152h19.51v3.152a3.488 3.488 0 0 0 6.976 0v-3.152H82.23v3.152a3.488 3.488 0 0 0 6.976 0v-3.152h19.366v14.263H8.161V14.514zm83.668-6.976H89.207v-3.44a3.488 3.488 0 0 0-6.976 0v3.44H61.855v-3.44a3.488 3.488 0 0 0-6.976 0v3.44H35.37v-3.44a3.488 3.488 0 0 0-6.976 0v3.44H4.673a3.488 3.488 0 0 0-3.488 3.488v78.81a3.488 3.488 0 0 0 3.488 3.487H26.08c3.43 14.658 16.6 25.609 32.287 25.609 15.687 0 28.856-10.952 32.286-25.609h21.408a3.488 3.488 0 0 0 3.488-3.487v-78.81a3.487 3.487 0 0 0-3.488-3.488z"/></g><g><path fill="#00d8b7" d="M61.855 86.646V69.773a3.488 3.488 0 0 0-6.976 0v18.319a3.49 3.49 0 0 0 1.021 2.466l8.017 8.017a3.478 3.478 0 0 0 2.466 1.021 3.488 3.488 0 0 0 2.466-5.954l-6.994-6.996z"/><path fill="none" stroke="#fff" stroke-miterlimit="50" d="M61.855 86.646v0-16.873a3.488 3.488 0 0 0-6.976 0v18.319a3.49 3.49 0 0 0 1.021 2.466l8.017 8.017a3.478 3.478 0 0 0 2.466 1.021 3.488 3.488 0 0 0 2.466-5.954l-6.994-6.996v0z"/></g></g></g></svg>