<svg xmlns="http://www.w3.org/2000/svg" width="153" height="97" viewBox="0 0 153 97"><g><g><g><path fill="#00d8b7" d="M147.382 89.471a2.541 2.541 0 0 1-2.54 2.541H7.622a2.541 2.541 0 0 1-2.54-2.54V8.156a2.541 2.541 0 0 1 2.54-2.541h137.218a2.541 2.541 0 0 1 2.541 2.54zM7.623.533A7.623 7.623 0 0 0 0 8.157V89.47a7.623 7.623 0 0 0 7.623 7.623h137.218a7.623 7.623 0 0 0 7.624-7.623V8.157A7.623 7.623 0 0 0 144.84.533z"/></g><g><path fill="#00d8b7" d="M15.246 15.78h121.972v66.068H15.246zm-5.082 71.15H142.3V10.698H10.164z"/></g><g><path fill="#00d8b7" d="M25.41 20.862h10.165v5.082H25.411z"/></g><g><path fill="#00d8b7" d="M25.41 71.684h10.165v5.082H25.411z"/></g><g><path fill="#00d8b7" d="M116.89 20.862h10.164v5.082H116.89z"/></g><g><path fill="#00d8b7" d="M116.89 71.684h10.164v5.082H116.89z"/></g><g><path fill="#00d8b7" d="M35.575 61.52H25.411V36.108h10.164zm2.541-30.494H22.87a2.541 2.541 0 0 0-2.541 2.541V64.06a2.541 2.541 0 0 0 2.54 2.541h15.247a2.541 2.541 0 0 0 2.541-2.54V33.566a2.541 2.541 0 0 0-2.54-2.54z"/></g><g><path fill="#00d8b7" d="M127.054 61.52H116.89V36.108h10.164zm2.54-30.494h-15.246a2.541 2.541 0 0 0-2.54 2.541V64.06a2.541 2.541 0 0 0 2.54 2.541h15.247a2.541 2.541 0 0 0 2.541-2.54V33.566a2.541 2.541 0 0 0-2.541-2.54z"/></g><g><path fill="#00d8b7" d="M58.445 33.567a2.541 2.541 0 0 0-2.541-2.54h-5.082a2.54 2.54 0 0 0-1.797.744l-5.082 5.082 3.593 3.593 4.338-4.337h1.489v25.41H48.28v5.082h15.247V61.52h-5.082z"/></g><g><path fill="#00d8b7" d="M81.314 46.273h-7.623V36.109h7.623zm2.542-15.247H71.15a2.541 2.541 0 0 0-2.54 2.541v33.034h5.081V51.355h10.165a2.541 2.541 0 0 0 2.54-2.541V33.567a2.541 2.541 0 0 0-2.54-2.54z"/></g><g><path fill="#00d8b7" d="M91.479 33.567v33.034h5.082V46.273h10.164V41.19H96.561v-5.082h12.705v-5.083H94.02a2.541 2.541 0 0 0-2.541 2.541z"/></g><g><path fill="#00d8b7" d="M45.74 20.862h5.082v5.082h-5.083z"/></g><g><path fill="#00d8b7" d="M81.314 71.684h5.083v5.082h-5.083z"/></g></g></g></svg>