<svg xmlns="http://www.w3.org/2000/svg" width="108" height="92" viewBox="0 0 108 92"><g><g><g><path d="M103.675 88.842h-7.997c.152-.776.23-1.569.23-2.371 0-5.569-3.727-10.28-8.816-11.778v-5.11c.769-.12 1.552-.182 2.335-.182 8.237 0 14.939 6.7 14.939 14.937 0 1.543-.232 3.054-.69 4.504zm-28.876 0a9.158 9.158 0 0 1-.31-2.371c0-5.041 4.101-9.143 9.142-9.143 5.041 0 9.143 4.102 9.143 9.143 0 .809-.104 1.602-.31 2.371zm-54.659 0V79.6h19.85v9.242zm6.887-29.062c0-.32.26-.579.58-.579h3.863c.32 0 .58.26.58.579v16.686h-5.023zm16.676-.579h16.69c.32 0 .58.26.58.579v29.062H43.124V59.78c0-.32.26-.579.578-.579zm29.759 20.4a12.205 12.205 0 0 0-2.108 6.87c0 .802.078 1.595.231 2.371h-7.478V79.6zM72.047 59.78c0-.32.26-.579.58-.579h3.864c.319 0 .58.26.58.579v16.321c-.185.117-.365.239-.541.365h-4.483zm17.38 6.486c-.782 0-1.562.055-2.335.155v-6.8a1.567 1.567 0 1 0-3.135 0V74.2c-.109-.002-.216-.007-.326-.007-1.188 0-2.338.173-3.426.49V59.78a3.719 3.719 0 0 0-3.714-3.714h-3.864a3.719 3.719 0 0 0-3.715 3.714v16.686h-4.805V59.78a3.718 3.718 0 0 0-3.713-3.714h-16.69a3.718 3.718 0 0 0-3.714 3.714v16.686h-4.805V59.78a3.719 3.719 0 0 0-3.714-3.714h-3.864a3.718 3.718 0 0 0-3.714 3.714v16.686H20.14V44.362l31.908-28.648 31.909 28.648v8.433a1.568 1.568 0 0 0 3.135 0v-5.618l.577.518a3.718 3.718 0 0 0 5.245-.283l3.585-3.993a3.718 3.718 0 0 0-.282-5.245L79.083 22.79a1.568 1.568 0 0 0-2.094 2.332l17.134 15.384a.58.58 0 0 1 .044.818l-3.586 3.993a.58.58 0 0 1-.818.044l-36.668-32.92a1.567 1.567 0 0 0-2.093 0l-36.668 32.92a.58.58 0 0 1-.819-.044L9.93 41.325a.581.581 0 0 1 .044-.82L49.868 4.689a3.26 3.26 0 0 1 4.36 0l17.68 15.872a1.567 1.567 0 1 0 2.094-2.332L56.322 2.355a6.387 6.387 0 0 0-8.548 0L7.88 38.174a3.718 3.718 0 0 0-.282 5.245l3.585 3.993a3.689 3.689 0 0 0 2.768 1.233 3.69 3.69 0 0 0 2.477-.95l.577-.519v19.158A17.883 17.883 0 0 0 7.69 69.91a1.566 1.566 0 1 0 1.89 2.501 14.77 14.77 0 0 1 7.426-2.928v19.357H4.325c-.459-1.45-.69-2.96-.69-4.503 0-2.543.652-5.056 1.887-7.268a1.568 1.568 0 0 0-2.736-1.529 18.075 18.075 0 0 0-2.287 8.797c0 2.295.425 4.532 1.262 6.648.237.598.815.991 1.458.991H104.78c.644 0 1.222-.393 1.459-.991a17.984 17.984 0 0 0 1.262-6.648c0-9.965-8.108-18.072-18.074-18.072z"/></g><g><path d="M57.416 77.367c.866 0 1.567-.702 1.567-1.568v-1.778a1.567 1.567 0 1 0-3.135 0V75.8c0 .866.701 1.568 1.568 1.568z"/></g><g><path d="M59.059 40.599a7.018 7.018 0 0 1-7.01 7.01 7.018 7.018 0 0 1-7.011-7.01 7.018 7.018 0 0 1 7.01-7.01 7.018 7.018 0 0 1 7.01 7.01zm-17.156 0c0 5.594 4.551 10.146 10.145 10.146 5.595 0 10.146-4.552 10.146-10.146 0-5.594-4.551-10.145-10.146-10.145-5.594 0-10.145 4.551-10.145 10.145z"/></g></g></g></svg>