<svg xmlns="http://www.w3.org/2000/svg" width="133" height="135" viewBox="0 0 133 135"><g><g><g><g><g><path fill="#00d8b7" d="M118.358 126.63l-2.206-.189V68.404a1.986 1.986 0 1 0-3.972 0v62.624H18.707V16.372h93.474v42.764a1.986 1.986 0 1 0 3.972 0v-44.75a1.986 1.986 0 0 0-1.986-1.986h-12.295l-.286-2.277 26.53 2.266zM96.854 4.329l1.015 8.07H32.657zm-61.872.106l17.38 1.484-17.697 2.225zm-20.246 96.062L4.11 15.988l10.625-1.335zM131.781 9.299a1.985 1.985 0 0 0-1.35-.699L101.08 6.093l-.532-4.23A1.988 1.988 0 0 0 98.329.14l-27.23 3.424a1.976 1.976 0 0 0-.331-.06L33.34.309c-1.078-.095-2.056.734-2.148 1.81l-.558 6.532-28.99 3.645a2.006 2.006 0 0 0-1.723 2.218L14.72 132.216c.067.536-.048 1.052.171 1.571a2.005 2.005 0 0 0 1.83 1.213h97.445a1.986 1.986 0 0 0 1.986-1.986v-2.586l3.847.328a2.005 2.005 0 0 0 2.147-1.81l10.096-118.198a1.985 1.985 0 0 0-.46-1.449z"/></g></g></g><g><g><g><path fill="#00d8b7" d="M95.157 52.649h-23.49v-23.49c4.816.371 9.26 2.089 12.962 4.77l-1.772 2.657c-.553.83-.391 1.98.373 2.621.895.752 2.284.554 2.932-.417l1.516-2.275c4.223 4.194 6.994 9.848 7.48 16.134zm8.418-29.657H92.983c-.664 0-1.285.331-1.653.884l-4.495 6.743a29.363 29.363 0 0 0-17.154-5.51 1.986 1.986 0 0 0-1.986 1.987v27.539c0 1.097.889 1.986 1.986 1.986H97.22a1.986 1.986 0 0 0 1.986-1.986c0-8.456-3.574-16.09-9.289-21.479l4.129-6.192h9.529a1.986 1.986 0 1 0 0-3.972z"/></g></g></g><g><g><g><path fill="#00d8b7" d="M75.602 72.647a1.986 1.986 0 1 0-3.369 2.105l5.101 8.162a25.433 25.433 0 0 1-16.127 5.747c-14.09 0-25.553-11.463-25.553-25.553 0-13.421 10.402-24.46 23.567-25.476v25.476c0 1.097.89 1.986 1.986 1.986h25.477a25.454 25.454 0 0 1-6.418 15.017zm27.973 16.014H85.61l-3.165-5.065c5.127-5.313 8.287-12.538 8.287-20.488a1.986 1.986 0 0 0-1.986-1.986H63.193V35.57c0-1.097-.889-1.986-1.986-1.986-16.28 0-29.525 13.245-29.525 29.525s13.245 29.525 29.525 29.525a29.38 29.38 0 0 0 18.246-6.328l3.372 5.395c.363.58 1 .933 1.684.933h19.066a1.986 1.986 0 1 0 0-3.972z"/></g></g></g><g><g><g><path fill="#00d8b7" d="M44.26 99.253H27.313a1.986 1.986 0 1 0 0 3.972H44.26a1.986 1.986 0 1 0 0-3.972z"/></g></g></g><g><g><g><path fill="#00d8b7" d="M69.68 99.253H52.735a1.986 1.986 0 1 0 0 3.972H69.68a1.986 1.986 0 1 0 0-3.972z"/></g></g></g><g><g><g><path fill="#00d8b7" d="M54.852 109.845H27.313a1.986 1.986 0 1 0 0 3.972h27.54a1.986 1.986 0 1 0 0-3.972z"/></g></g></g><g><g><g><path fill="#00d8b7" d="M69.68 109.845h-6.354a1.986 1.986 0 1 0 0 3.972h6.355a1.986 1.986 0 1 0 0-3.972z"/></g></g></g><g><g><g><path fill="#00d8b7" d="M35.787 120.436h-8.474a1.986 1.986 0 1 0 0 3.972h8.474a1.986 1.986 0 1 0 0-3.972z"/></g></g></g><g><g><g><path fill="#00d8b7" d="M69.68 120.436H44.26a1.986 1.986 0 1 0 0 3.972h25.42a1.986 1.986 0 1 0 0-3.972z"/></g></g></g></g></g></svg>