<svg xmlns="http://www.w3.org/2000/svg" width="228" height="29" viewBox="0 0 228 29"><g><g><g><g><g><g><path fill="#2f2f2f" d="M14.527 3.714h3.76L12.893 25.7h-7.03L.47 3.714h3.76l4.413 18.88h1.635z"/></g></g><g><g><path fill="#2f2f2f" d="M34.378 25.782V3.714h3.514v22.068z"/></g></g><g><g><path fill="#2f2f2f" d="M62.377 6.493c-2.697 0-4.087.98-4.087 2.86 0 .981.327 1.717.981 2.126.654.408 2.043.899 4.25 1.553 2.207.654 3.76 1.39 4.66 2.207.898.817 1.389 2.206 1.389 4.005 0 2.288-.654 4.005-1.962 5.23-1.308 1.145-3.106 1.717-5.395 1.717-2.043 0-4.086-.245-6.048-.654l-1.144-.245.327-2.86c2.207.326 4.413.49 6.62.571 2.698 0 4.005-1.144 4.005-3.514 0-.9-.327-1.635-.899-2.044-.654-.408-1.961-.899-4.005-1.47-2.125-.491-3.678-1.227-4.659-2.208-1.144-.98-1.634-2.452-1.634-4.495 0-2.044.653-3.515 1.961-4.496 1.308-.98 3.106-1.553 5.395-1.553 1.961 0 3.923.246 5.885.573l1.144.163-.327 2.86c-3.106-.163-5.15-.326-6.457-.326z"/></g></g><g><g><path fill="#2f2f2f" d="M86.336 25.782V3.714h3.515v22.068z"/></g></g><g><g><path fill="#2f2f2f" d="M141.862 25.782V3.714h6.212l6.703 18.88h.49V3.715h3.515v22.068h-6.13l-6.866-18.88h-.409v18.88z"/></g></g><g><g><path fill="#2f2f2f" d="M105.693 5.23a14.119 14.119 0 0 1 14.712-3.76c-.572 1.717-2.207 2.78-4.005 2.698-3.024-.082-6.048 1.144-8.092 3.35-4.005 4.25-3.841 10.872.409 14.877a11.08 11.08 0 0 0 4.005 2.37c1.716.49 3.515.654 5.313.245 1.471-.327 2.942-.98 4.087-1.88 4.332-3.27 5.558-9.154 2.86-13.895-.899-1.553-.735-3.514.49-4.822 6.13 5.721 5.804 15.856-1.144 21.333a13.86 13.86 0 0 1-5.803 2.615c-2.288.409-4.659.327-6.866-.327-1.961-.572-3.841-1.634-5.312-3.106-5.722-5.23-5.967-14.058-.654-19.698"/></g></g></g><g><path fill="#00d8b7" d="M119.884 11.033c.082.49 0 .981-.245 1.39a2.016 2.016 0 0 1-2.779.735 2.118 2.118 0 0 1-.817-2.779v-.081a2.114 2.114 0 0 1 1.144-.9c-.49-.163-.98-.163-1.471-.163a5.477 5.477 0 1 0 5.476 5.476c.164-1.39-.327-2.697-1.308-3.678z"/></g></g><g><g><path fill="#2f2f2f" d="M178.066 13.404c.082.408-.081.735-.327 1.062-.245.245-.654.327-.98.327h-1.635v-2.697h1.635c.899 0 1.307.409 1.307 1.308zm-2.86 2.37h1.798l1.062 2.616h1.308l-1.226-2.861c.817-.409 1.226-1.063 1.226-2.125 0-1.553-.9-2.37-2.534-2.37h-2.779v7.437h1.145v-2.615z"/></g><g><path fill="#2f2f2f" d="M182.807 18.471v-7.438h4.659v1.063h-3.433v2.125h2.78v1.063h-2.78v2.125h3.433v1.062z"/></g><g><path fill="#2f2f2f" d="M190.245 12.178v-1.063h5.394v1.063h-2.125v6.293h-1.226v-6.293z"/></g><g><path fill="#2f2f2f" d="M201.116 12.096l.899 3.76h-2.37l.899-3.76zm-2.125 6.375l.408-1.553h2.861l.409 1.553h1.226l-1.88-7.438h-2.37l-1.88 7.438z"/></g><g><path fill="#2f2f2f" d="M207 18.471v-7.438h1.145v7.438z"/></g><g><path fill="#2f2f2f" d="M216.237 18.471h-4.169v-7.438h1.145v6.294h2.942l.082 1.144z"/></g></g><g><g><path fill="#2f2f2f" d="M223.976.533h.9l.817 2.615.899-2.615h.899v3.76h-.654V1.432l-.817 2.616h-.49l-.818-2.616v2.78l-.736.08zm-2.86.654V.533h2.533v.654h-.817v3.106h-.736V1.187z"/></g></g><g><g><path fill="#2f2f2f" d="M169.692 18.508V8.046h50.022V21.45h-47.162zm50.512-10.87h-50.921v11.034l3.106 3.187h47.815z"/></g></g></g></g></svg>