<svg xmlns="http://www.w3.org/2000/svg" width="75" height="101" viewBox="0 0 75 101"><g><g><g><g><path d="M69.502 84.232c0 5.846-4.747 10.614-10.614 10.614H16.433c-5.846 0-10.614-4.747-10.614-10.614V49.571h63.683v34.661zm-1.285-40.258v-13.04C68.217 14.081 54.514.357 37.64.357 20.786.357 7.063 14.06 7.063 30.934a2.787 2.787 0 0 0 2.798 2.799 2.787 2.787 0 0 0 2.799-2.799c0-13.765 11.194-24.98 24.98-24.98 13.765 0 24.98 11.195 24.98 24.98v13.04H5.61a5.415 5.415 0 0 0-5.41 5.41v34.848c0 8.935 7.276 16.211 16.21 16.211h42.477c8.935 0 16.211-7.276 16.211-16.211V49.384a5.415 5.415 0 0 0-5.41-5.41z"/></g><g><path d="M37.66 67.73a4.88 4.88 0 0 1 4.872 4.872c0 2.674-2.177 4.893-4.872 4.893a4.88 4.88 0 0 1-4.871-4.872c0-2.674 2.177-4.892 4.871-4.892zm0 15.362c5.784 0 10.47-4.706 10.47-10.469 0-5.784-4.706-10.469-10.47-10.469-5.783 0-10.468 4.706-10.468 10.469 0 5.763 4.685 10.469 10.468 10.469z"/></g></g></g></g></svg>