<svg xmlns="http://www.w3.org/2000/svg" width="99" height="98" viewBox="0 0 99 98"><g><g><g><g><path d="M49.45 94.25C24.592 94.25 4.44 74.097 4.44 49.24c0-24.857 20.151-45.008 45.009-45.008s45.009 20.15 45.009 45.009c-.03 24.845-20.164 44.98-45.01 45.008zm0-93.769C22.52.481.69 22.311.69 49.241.69 76.17 22.52 98 49.45 98c26.929 0 48.76-21.83 48.76-48.76C98.18 22.325 76.366.512 49.45.482z"/></g></g></g><g><g><g><path d="M6 51v-4h8v4z"/></g></g></g><g><g><g><path d="M85 51v-4h8v4z"/></g></g></g><g><g><g><path d="M13.03 72.435l-1.875-3.249 6.497-3.75 1.875 3.249z"/></g></g></g><g><g><g><path d="M81.247 33.048L79.372 29.8l6.497-3.75 1.875 3.248z"/></g></g></g><g><g><g><path d="M17.654 33.048l-6.497-3.75 1.875-3.249 6.497 3.75z"/></g></g></g><g><g><g><path d="M85.87 72.422l-6.497-3.75 1.875-3.249 6.497 3.75z"/></g></g></g><g><g><g><path d="M30.002 19.32l-3.75-6.497 3.249-1.875 3.75 6.497z"/></g></g></g><g><g><g><path d="M48 14V6h3v8z"/></g></g></g><g><g><g><path d="M68.889 19.317l-3.249-1.875 3.75-6.497 3.249 1.875z"/></g></g></g><g><g><g><path d="M12.734 41.342L7.3 39.886l.97-3.622 5.435 1.456z"/></g></g></g><g><g><g><path d="M90.615 62.212l-5.434-1.456.97-3.623 5.435 1.456z"/></g></g></g><g><g><g><path d="M21.603 24.044l-3.979-3.978 2.653-2.652 3.978 3.978z"/></g></g></g><g><g><g><path d="M37.922 13.498l-1.456-5.434 3.623-.97 1.456 5.434z"/></g></g></g><g><g><g><path d="M60.965 13.508l-3.622-.97 1.456-5.435 3.622.97z"/></g></g></g><g><g><g><path d="M77.297 24.05l-2.652-2.652 3.978-3.979 2.653 2.653z"/></g></g></g><g><g><g><path d="M86.174 41.343l-.971-3.623 5.434-1.456.97 3.623z"/></g></g></g><g><g><g><path d="M8.27 62.215l-.97-3.623 5.434-1.456.97 3.623z"/></g></g></g><g><g><g><path d="M57.407 18.383c-17.051-4.392-34.434 5.87-38.826 22.92a31.881 31.881 0 0 0 3.254 23.878 1.875 1.875 0 0 0 3.246-1.875c-7.758-13.46-3.137-30.662 10.323-38.42 13.46-7.76 30.661-3.137 38.42 10.323a28.13 28.13 0 0 1 2.87 21.068 1.877 1.877 0 0 0 3.634.937v-.005c4.392-17.051-5.87-34.434-22.921-38.826z"/></g></g></g><g><g><g><path d="M54.56 54.702a7.456 7.456 0 0 0 2.127-3.596l9.454 7.725zm-5.11-1.71a3.75 3.75 0 1 1 0-7.502 3.75 3.75 0 0 1 0 7.501zm27.442 9.8L56.263 45.914a1.76 1.76 0 0 0-.174-.094 7.48 7.48 0 1 0-7.09 10.877l26.068 9.311a1.876 1.876 0 0 0 1.825-3.216z"/></g></g></g><g><g><g><path d="M56.951 82.997H41.948a5.626 5.626 0 1 1 0-11.252h15.003a5.626 5.626 0 1 1 0 11.252zm0-15.003H41.948a9.377 9.377 0 0 0 0 18.754h15.003a9.377 9.377 0 0 0 0-18.754z"/></g></g></g><g><g><g><path d="M45.7 75.496h-3.752a1.875 1.875 0 0 0 0 3.75H45.7a1.875 1.875 0 0 0 0-3.75z"/></g></g></g><g><g><g><path d="M56.951 75.496h-3.75a1.875 1.875 0 0 0 0 3.75h3.75a1.875 1.875 0 0 0 0-3.75z"/></g></g></g></g></svg>