<svg xmlns="http://www.w3.org/2000/svg" width="105" height="104" viewBox="0 0 105 104"><g><g><g><g><g><path d="M66.638 37.685a2.043 2.043 0 0 0-1.437-.595c-.534 0-1.058.217-1.436.595-.378.378-.595.9-.595 1.436 0 .534.217 1.059.595 1.436.378.378.902.596 1.436.596a2.037 2.037 0 0 0 2.032-2.032c0-.537-.215-1.058-.595-1.436z"/></g></g></g><g><g><g><path d="M82.62 50.078c-.584 1.01-1.603 1.706-2.87 1.96-1.365.273-2.837.007-4.144-.748l-9.006-5.2c-1.055-2.544-2.984-4.714-5.499-6.166l-5.618-3.243c-1.629-.94-3.497-1.264-5.261-.912-.778.156-1.658-.006-2.414-.443L16.845 17.45c-2.665-1.539-3.79-4.6-2.506-6.822.958-1.66 3.003-2.501 5.214-2.15 3.03.557 6.462 1.204 10.027 1.893l2.698 10.07c.205.765.835 1.341 1.615 1.477l7.32 1.27a2.032 2.032 0 0 0 2.31-2.527l-2.128-7.941c1 .205 1.99.41 2.96.613l2.615 9.761c.205.765.835 1.34 1.615 1.476l7.32 1.27a2.032 2.032 0 0 0 2.31-2.527l-1.963-7.321c2.734.677 4.638 1.236 5.263 1.597l.924.533-.99 1.714a6.934 6.934 0 0 0 2.534 9.46l9.518 5.498-2.91.78a2.032 2.032 0 0 0 1.052 3.924l9.707-2.601a9.354 9.354 0 0 0 1.661-.376l1.186-.387 2.28-.61c1.25-.124 2.597.17 3.773.848.105.06.157.132.18.176zm-10.358 7.003l-9.005-5.199c-1.056-2.544-2.985-4.714-5.5-6.166l-5.618-3.244c-1.628-.94-3.497-1.264-5.26-.912-.779.156-1.658-.005-2.415-.442L38.01 37.39l-2.007-1.158-15.371-8.875-.002-.001-5.838-3.371h-.002l-1.287-.744c-2.514-1.452-3.656-4.256-2.7-6.436a10.298 10.298 0 0 0 4.012 4.163l30.963 17.876c1.622.937 3.484 1.26 5.241.909.784-.158 1.672.005 2.434.445l5.618 3.244c1.874 1.082 3.319 2.794 3.963 4.696.158.468.48.861.908 1.108l9.633 5.562c1.594.92 3.359 1.396 5.11 1.396.127 0 .253-.004.38-.009-1.373 1.9-4.328 2.314-6.802.885zm-4.718 3.883a1.096 1.096 0 0 1-1.496.4l-.423-.244a1.097 1.097 0 0 1-.4-1.496l.791-1.371 2.32 1.34zM62.83 85.555l-1.523-9.518 6.577-6.634a31.332 31.332 0 0 1-5.054 16.152zm-13.7 11.7l-10.69-6.54v-9.468L45 76.482l2.35-1.707.64.144 9.36 2.101 2.065 12.903a31.673 31.673 0 0 1-10.284 7.332zm-12.755 2.698c-2.338 0-4.616-.257-6.81-.743l6.896-4.943 7.702 4.712c-2.492.636-5.1.974-7.788.974zm-22.481-9.449l1.57-13.498 9.475-2.128.463-.103 8.908 6.472v9.563l-9.622 6.897a31.63 31.63 0 0 1-10.794-7.203zm-3.583-4.362a31.335 31.335 0 0 1-5.45-16.877l6.622 6.8zM8.715 53.237l12.617-2.37 6.296 9.688-3.35 10.308-8.224 1.846-1.778.4-9.087-9.331a31.446 31.446 0 0 1 3.526-10.541zm35.794 18.578l-4.05 2.943-4.05 2.943-8.101-5.886 3.094-9.523h10.013zm-13.403-31.89l.792-1.37 1.414.816.905.523-.791 1.371a1.096 1.096 0 0 1-1.496.401l-.423-.244a1.087 1.087 0 0 1-.51-.665 1.089 1.089 0 0 1 .109-.831zm1.363 5.95a5.162 5.162 0 0 0 4.476-2.579l.791-1.371 4.696 2.711c1.623.937 3.484 1.26 5.242.909.784-.157 1.671.005 2.433.446l5.619 3.243c1.874 1.082 3.318 2.794 3.962 4.696.159.468.481.861.909 1.108l1.938 1.12-.829 1.435a5.164 5.164 0 0 0 1.888 7.046l.423.244c.627.362 1.3.575 1.978.654l-7.509 7.574-10.014-2.248-1.066-3.281-2.281-7.02 3.47-5.273a2.032 2.032 0 0 0-3.394-2.234l-3.405 5.174H30.962l-6.286-9.673 3.047-5.281a5.134 5.134 0 0 0 1.753 1.665l.423.244c.81.468 1.695.69 2.57.69zm-6.844-7.096zm-4.623 8.016l-9.107 1.71a31.346 31.346 0 0 1 13.73-9.726zm-4.956-15.564a1.087 1.087 0 0 1-.665.51 1.086 1.086 0 0 1-.83-.11l-.424-.244a1.087 1.087 0 0 1-.51-.665 1.087 1.087 0 0 1 .11-.83l.791-1.372 2.32 1.34zm20.901-19.412l1.828 6.822-2.908-.505-1.848-6.9c.976.194 1.954.388 2.928.583zm14.817 3.117l1.703 6.357-2.908-.505-1.743-6.505c1.023.223 2.008.441 2.948.653zm48.534-.17a2.032 2.032 0 0 0-2.775.747l-9.215 15.994a9.847 9.847 0 0 0-2.507.003l-.01.001a9.333 9.333 0 0 0-1.682.378l-1.067.348-2.445.655c-1.244.114-2.58-.182-3.75-.857l-10.832-6.257a2.866 2.866 0 0 1-1.047-3.91l2.003-3.47v-.002l8.897-15.365A2.032 2.032 0 0 0 72.352.995l-7.88 13.61-.925-.535c-3.966-2.29-36.75-8.392-43.283-9.591l-.041-.008c-3.9-.632-7.591.986-9.403 4.125l-3.343 5.791c-2.322 4.02-.73 9.334 3.53 12.089l-.8 1.384a5.124 5.124 0 0 0-.515 3.914 5.124 5.124 0 0 0 2.404 3.132l.423.244a5.127 5.127 0 0 0 3.914.515 5.124 5.124 0 0 0 3.132-2.403l.792-1.371 4.785 2.763A35.813 35.813 0 0 0 8.578 46.205a35.21 35.21 0 0 0-2.791 4.039 2.047 2.047 0 0 0-.145.243A35.777 35.777 0 0 0 .787 68.428c0 9.24 3.54 17.667 9.334 24 .099.136.214.26.344.37a35.693 35.693 0 0 0 13.713 9.065c.083.035.168.065.255.09a35.425 35.425 0 0 0 11.943 2.063c4.668 0 9.128-.905 13.216-2.546.106-.034.21-.075.308-.126a35.74 35.74 0 0 0 13.021-9.24c.123-.11.233-.233.326-.367 5.427-6.249 8.717-14.402 8.717-23.309a36.09 36.09 0 0 0-.23-4.02c-.019-.17-.035-.343-.057-.513a1.91 1.91 0 0 0-.008-.06l-.234-1.485.546-.946a10.06 10.06 0 0 0 3.353.585c3.064 0 5.934-1.445 7.46-4.088l3.344-5.792 7.859-13.612c1.11-1.925.342-4.456-1.715-5.644l-.046-.025 8.808-15.287a2.031 2.031 0 0 0-.746-2.774z"/></g></g></g><g><g><g><path d="M104.207 9.038a2.047 2.047 0 0 0-1.436-.595c-.535 0-1.059.217-1.437.595a2.046 2.046 0 0 0-.595 1.436c0 .537.218 1.059.595 1.437.378.377.902.595 1.437.595.534 0 1.058-.218 1.436-.595.378-.379.595-.902.595-1.437 0-.534-.217-1.058-.595-1.436z"/></g></g></g></g></g></svg>