<svg xmlns="http://www.w3.org/2000/svg" width="226" height="28" viewBox="0 0 226 28"><g><g><g><g><g><g><g><path fill="#2f2f2f" d="M14.825 2.923h3.715l-5.343 21.935H6.193L.815 2.923H4.53l4.351 18.822h1.628z"/></g></g><g><g><path fill="#2f2f2f" d="M34.59 24.858V2.923h3.539v21.97H34.59z"/></g></g><g><g><path fill="#2f2f2f" d="M62.471 5.662c-2.724 0-4.069.956-4.069 2.83 0 .991.32 1.698.956 2.088.672.425 2.052.92 4.245 1.52 2.194.602 3.715 1.346 4.635 2.195.92.849 1.345 2.193 1.345 3.962 0 2.3-.673 4.033-1.982 5.2-1.31 1.132-3.113 1.699-5.377 1.699a31.4 31.4 0 0 1-6.015-.672l-1.132-.213.353-2.83c2.18.33 4.378.518 6.581.566 2.653 0 3.963-1.168 3.963-3.538a2.357 2.357 0 0 0-.92-2.051c-.602-.425-1.981-.92-4.033-1.45-2.087-.532-3.68-1.24-4.67-2.195-.955-.849-1.486-2.3-1.486-4.316 0-2.017.672-3.467 1.91-4.493 1.31-.99 3.113-1.52 5.378-1.52 1.97.027 3.934.217 5.873.565l1.132.177-.319 2.9c-3.007-.247-5.094-.424-6.368-.424z"/></g></g><g><g><path fill="#2f2f2f" d="M86.281 24.858V2.923h3.538v21.97h-3.538z"/></g></g><g><g><path fill="#2f2f2f" d="M141.598 24.858V2.923h6.192l6.686 18.822h.495V2.923h3.538v21.97h-6.086l-6.792-18.82h-.424v18.82h-3.61z"/></g></g><g><g><path fill="#2f2f2f" d="M105.577 4.412A14.137 14.137 0 0 1 120.224.698a4.061 4.061 0 0 1-4.033 2.724c-5.811-.21-10.693 4.33-10.903 10.141a10.529 10.529 0 0 0 3.226 7.972 9.919 9.919 0 0 0 4.033 2.371c1.709.523 3.522.609 5.271.248 1.49-.315 2.891-.956 4.105-1.875a10.594 10.594 0 0 0 2.83-13.798 4.004 4.004 0 0 1 .53-4.811c6.12 5.73 5.802 15.814-1.167 21.226a13.517 13.517 0 0 1-5.802 2.618c-2.272.432-4.613.31-6.828-.354-2-.606-3.83-1.672-5.343-3.113-5.57-5.269-5.824-14.054-.566-19.635"/></g></g></g><g><path fill="#00d8b7" d="M119.757 10.18a1.97 1.97 0 0 1-.247 1.343 2.031 2.031 0 0 1-2.77.758l-.025-.014a2.052 2.052 0 0 1-.778-2.76l.035-.036c.233-.45.643-.782 1.132-.92a4.967 4.967 0 0 0-1.45-.177 5.449 5.449 0 1 0 5.448 5.449 4.977 4.977 0 0 0-1.345-3.644z"/></g></g><g><g><path fill="#2f2f2f" d="M166.46 17.937v-10.4h50.487v13.337h-47.975zM217.37 7.112h-51.3v11.002l2.724 3.184h48.576z"/></g></g><g><path fill="#2f2f2f" d="M221.91 2.644h.885l.814 2.582.884-2.582h.884v3.714h-.671V3.563l-.78 2.583h-.53l-.813-2.583v2.76h-.673zm-2.83.601v-.601h2.477v.601h-.814v3.042h-.708V3.245z"/></g></g><g><g><path fill="#2f2f2f" d="M172.557 12.2v-.783h3.954v.782h-1.527v4.635h-.885v-4.635z"/></g><g><path fill="#2f2f2f" d="M181.81 13.149c0 .3-.075.542-.222.723-.148.182-.38.273-.695.273h-1.195v-1.97h1.178c.622 0 .933.325.933.974zm-.838 1.755l.783 1.93h.963l-.892-2.127c.59-.275.885-.797.885-1.567 0-1.148-.611-1.723-1.835-1.723h-2.056v5.417h.878v-1.93z"/></g><g><path fill="#2f2f2f" d="M187.18 12.152l.663 2.744h-1.732l.672-2.744zm-1.536 4.682l.293-1.163h2.08l.293 1.163h.885l-1.344-5.417h-1.748l-1.335 5.417z"/></g><g><path fill="#2f2f2f" d="M191.552 16.834v-5.417h3.362v.767h-2.483v1.827h2.063v.767h-2.063v2.056z"/></g><g><path fill="#2f2f2f" d="M197.318 16.834v-5.417h3.361v.767h-2.483v1.827h2.064v.767h-2.064v2.056z"/></g><g><path fill="#2f2f2f" d="M203.082 16.834v-5.417h.879v5.417z"/></g><g><path fill="#2f2f2f" d="M208.61 16.92c-.79 0-1.326-.218-1.608-.655-.282-.438-.424-1.157-.424-2.16 0-1.001.142-1.714.428-2.139.284-.424.819-.637 1.604-.637.47 0 .986.067 1.552.198l-.033.712a8.079 8.079 0 0 0-1.423-.126c-.475 0-.797.14-.965.422-.169.283-.253.813-.253 1.59 0 .778.082 1.308.246 1.59.162.282.482.423.955.423a8.9 8.9 0 0 0 1.44-.119l.024.728a7.42 7.42 0 0 1-1.543.174z"/></g></g></g></g></svg>