<svg xmlns="http://www.w3.org/2000/svg" width="115" height="133" viewBox="0 0 115 133"><g><g><g><g><g><path fill="#00d8b7" d="M60.47 98.254a2.199 2.199 0 0 0-2.82 1.336 2.21 2.21 0 0 0 1.339 2.818 4.397 4.397 0 0 1 2.658 2.637 2.208 2.208 0 0 0 2.07 1.448c.254 0 .51-.044.759-.137a2.205 2.205 0 0 0 1.314-2.826 8.795 8.795 0 0 0-5.32-5.276z"/></g><g><path fill="#00d8b7" d="M7.78 26.825c3.148 2.099 5.633 3.754 5.633 11.393a2.204 2.204 0 1 0 4.409 0c0-9.998-4.034-12.687-7.595-15.062-2.82-1.878-5.108-3.403-5.553-9.188h19.762c1.219 0 2.204-.988 2.204-2.205a6.622 6.622 0 0 1 6.614-6.613h48.501a6.622 6.622 0 0 1 6.614 6.613c0 1.217.986 2.205 2.205 2.205h19.762c-.445 5.785-2.734 7.31-5.553 9.189-3.56 2.374-7.595 5.064-7.595 15.062a2.204 2.204 0 1 0 4.409 0c0-7.64 2.485-9.295 5.633-11.394 3.56-2.374 7.595-5.064 7.595-15.062a2.204 2.204 0 0 0-2.205-2.204H92.554C91.534 4.534 87.078.74 81.756.74H33.254c-5.322 0-9.777 3.794-10.798 8.819H2.39c-1.22 0-2.205.987-2.205 2.204 0 9.998 4.034 12.688 7.595 15.062z"/></g><g><path fill="#00d8b7" d="M57.505 119.79c-7.295 0-13.228-5.933-13.228-13.229 0-7.295 5.933-13.227 13.228-13.227s13.228 5.932 13.228 13.227c0 7.296-5.933 13.228-13.228 13.228zm0-30.865c-9.725 0-17.637 7.912-17.637 17.636 0 9.725 7.912 17.637 17.637 17.637 9.725 0 17.637-7.912 17.637-17.637 0-9.724-7.912-17.636-17.637-17.636z"/></g><g><path fill="#00d8b7" d="M60.47 58.571a2.199 2.199 0 0 0-2.82 1.336 2.21 2.21 0 0 0 1.339 2.818 4.396 4.396 0 0 1 2.658 2.637 2.208 2.208 0 0 0 2.07 1.448c.254 0 .51-.044.759-.137a2.205 2.205 0 0 0 1.314-2.826 8.795 8.795 0 0 0-5.32-5.276z"/></g><g><path fill="#00d8b7" d="M57.505 80.106c-7.295 0-13.228-5.932-13.228-13.227 0-7.296 5.933-13.228 13.228-13.228s13.228 5.932 13.228 13.228c0 7.295-5.933 13.227-13.228 13.227zm0-30.864c-9.725 0-17.637 7.912-17.637 17.636 0 9.725 7.912 17.637 17.637 17.637 9.725 0 17.637-7.912 17.637-17.636 0-9.725-7.912-17.637-17.637-17.637z"/></g><g><path fill="#00d8b7" d="M112.62 49.242H92.779v-28.66a2.204 2.204 0 1 0-4.41 0v30.864c0 1.217.986 2.205 2.205 2.205h19.762c-.445 5.785-2.733 7.31-5.553 9.189-3.56 2.374-7.595 5.064-7.595 15.062a2.204 2.204 0 1 0 4.41 0c0-7.64 2.484-9.295 5.632-11.394 3.56-2.374 7.595-5.064 7.595-15.062a2.204 2.204 0 0 0-2.205-2.204z"/></g><g><path fill="#00d8b7" d="M60.47 18.888a2.202 2.202 0 0 0-2.82 1.336 2.21 2.21 0 0 0 1.339 2.818 4.397 4.397 0 0 1 2.658 2.637 2.208 2.208 0 0 0 2.07 1.448c.254 0 .51-.044.759-.137a2.206 2.206 0 0 0 1.314-2.828 8.797 8.797 0 0 0-5.32-5.274z"/></g><g><path fill="#00d8b7" d="M112.62 88.924H92.779v-28.66a2.204 2.204 0 1 0-4.41 0V91.13c0 1.217.986 2.205 2.205 2.205h19.762c-.445 5.785-2.733 7.31-5.553 9.189-3.56 2.374-7.595 5.064-7.595 15.062a2.204 2.204 0 1 0 4.41 0c0-7.64 2.484-9.295 5.632-11.394 3.56-2.374 7.595-5.064 7.595-15.062a2.204 2.204 0 0 0-2.205-2.204z"/></g><g><path fill="#00d8b7" d="M10.227 102.523c-2.82-1.879-5.108-3.404-5.553-9.19h19.762c1.219 0 2.204-.987 2.204-2.204V60.265a2.204 2.204 0 1 0-4.409 0v28.66H2.39c-1.22 0-2.205.987-2.205 2.204 0 9.998 4.035 12.687 7.595 15.062 3.148 2.099 5.633 3.754 5.633 11.393a2.204 2.204 0 1 0 4.409 0c0-9.997-4.034-12.687-7.595-15.061z"/></g><g><path fill="#00d8b7" d="M90.574 97.743c-1.22 0-2.204.988-2.204 2.205v22.046a6.622 6.622 0 0 1-6.614 6.613H33.254a6.622 6.622 0 0 1-6.614-6.613V99.948a2.204 2.204 0 1 0-4.409 0v22.046c0 6.078 4.945 11.023 11.023 11.023h48.502c6.078 0 11.023-4.945 11.023-11.023V99.948a2.204 2.204 0 0 0-2.205-2.205z"/></g><g><path fill="#00d8b7" d="M7.78 66.508c3.148 2.099 5.633 3.754 5.633 11.393a2.204 2.204 0 1 0 4.409 0c0-9.998-4.034-12.687-7.595-15.062-2.82-1.878-5.108-3.403-5.553-9.188h19.762c1.219 0 2.204-.988 2.204-2.205V20.582a2.204 2.204 0 1 0-4.409 0v28.66H2.39c-1.22 0-2.205.987-2.205 2.204 0 9.998 4.034 12.688 7.595 15.062z"/></g><g><path fill="#00d8b7" d="M57.505 40.423c-7.295 0-13.228-5.932-13.228-13.227 0-7.296 5.933-13.228 13.228-13.228S70.733 19.9 70.733 27.196c0 7.295-5.933 13.227-13.228 13.227zm0-30.864c-9.725 0-17.637 7.912-17.637 17.637 0 9.724 7.912 17.637 17.637 17.637 9.725 0 17.637-7.913 17.637-17.637 0-9.725-7.912-17.637-17.637-17.637z"/></g></g></g></g></g></svg>