<svg xmlns="http://www.w3.org/2000/svg" width="97" height="112" viewBox="0 0 97 112"><g><g><g><g><g><path d="M51.004 82.328a1.854 1.854 0 0 0-2.377 1.126 1.862 1.862 0 0 0 1.128 2.375 3.706 3.706 0 0 1 2.242 2.223c.275.753.988 1.221 1.745 1.221a1.859 1.859 0 0 0 1.747-2.498 7.414 7.414 0 0 0-4.485-4.447z"/></g><g><path d="M6.587 22.114c2.654 1.77 4.748 3.165 4.748 9.604a1.858 1.858 0 1 0 3.717 0c0-8.428-3.4-10.695-6.402-12.697-2.377-1.583-4.306-2.87-4.682-7.746h16.66a1.858 1.858 0 0 0 1.858-1.858 5.582 5.582 0 0 1 5.575-5.575h40.887a5.582 5.582 0 0 1 5.575 5.575c0 1.026.83 1.858 1.858 1.858h16.66c-.376 4.877-2.305 6.163-4.682 7.746-3.001 2.002-6.402 4.27-6.402 12.698a1.858 1.858 0 1 0 3.717 0c0-6.44 2.094-7.836 4.748-9.605 3.002-2.001 6.403-4.269 6.403-12.697 0-1.026-.831-1.858-1.859-1.858H78.05C77.19 3.323 73.434.125 68.948.125H28.06c-4.486 0-8.242 3.198-9.102 7.433H2.043A1.858 1.858 0 0 0 .185 9.417c0 8.428 3.4 10.695 6.402 12.697z"/></g><g><path d="M48.505 100.482c-6.15 0-11.151-5.001-11.151-11.151 0-6.15 5-11.15 11.15-11.15s11.151 5 11.151 11.15-5 11.15-11.15 11.15zm0-26.019c-8.198 0-14.868 6.67-14.868 14.868s6.67 14.868 14.868 14.868c8.197 0 14.867-6.67 14.867-14.868s-6.67-14.868-14.867-14.868z"/></g><g><path d="M51.004 48.876a1.854 1.854 0 0 0-2.377 1.126 1.862 1.862 0 0 0 1.128 2.375 3.706 3.706 0 0 1 2.242 2.223c.275.753.988 1.22 1.745 1.22a1.859 1.859 0 0 0 1.747-2.498 7.414 7.414 0 0 0-4.485-4.446z"/></g><g><path d="M48.505 67.03c-6.15 0-11.151-5.002-11.151-11.151 0-6.15 5-11.151 11.15-11.151s11.151 5 11.151 11.15-5 11.151-11.15 11.151zm0-26.02c-8.198 0-14.868 6.67-14.868 14.869 0 8.197 6.67 14.867 14.868 14.867 8.197 0 14.867-6.67 14.867-14.867 0-8.198-6.67-14.868-14.867-14.868z"/></g><g><path d="M94.966 41.01H78.24V16.85a1.858 1.858 0 1 0-3.717 0v26.02c0 1.025.83 1.858 1.859 1.858H93.04c-.376 4.876-2.305 6.162-4.682 7.746-3 2.001-6.402 4.269-6.402 12.697a1.858 1.858 0 1 0 3.717 0c0-6.44 2.094-7.835 4.748-9.605 3.002-2.001 6.403-4.268 6.403-12.697 0-1.026-.831-1.858-1.859-1.858z"/></g><g><path d="M51.004 15.423a1.857 1.857 0 0 0-2.377 1.127 1.862 1.862 0 0 0 1.128 2.375 3.706 3.706 0 0 1 2.242 2.222c.275.753.988 1.221 1.745 1.221a1.86 1.86 0 0 0 1.747-2.5 7.416 7.416 0 0 0-4.485-4.445z"/></g><g><path d="M94.966 74.463H78.24v-24.16a1.858 1.858 0 1 0-3.717 0v26.019c0 1.025.83 1.858 1.859 1.858H93.04c-.376 4.877-2.305 6.163-4.682 7.746-3 2.002-6.402 4.27-6.402 12.697a1.858 1.858 0 1 0 3.717 0c0-6.44 2.094-7.835 4.748-9.604 3.002-2.002 6.403-4.27 6.403-12.697 0-1.026-.831-1.859-1.859-1.859z"/></g><g><path d="M8.65 85.926c-2.377-1.583-4.306-2.87-4.682-7.746h16.66a1.858 1.858 0 0 0 1.858-1.858V50.303a1.858 1.858 0 1 0-3.717 0v24.16H2.043a1.858 1.858 0 0 0-1.858 1.858c0 8.429 3.4 10.696 6.402 12.698 2.654 1.769 4.748 3.164 4.748 9.604a1.858 1.858 0 1 0 3.717 0c0-8.428-3.4-10.695-6.402-12.697z"/></g><g><path d="M76.382 81.897a1.858 1.858 0 0 0-1.859 1.858v18.585a5.582 5.582 0 0 1-5.575 5.576H28.06a5.582 5.582 0 0 1-5.575-5.576V83.755a1.858 1.858 0 1 0-3.717 0v18.585c0 5.124 4.169 9.293 9.293 9.293h40.886c5.123 0 9.292-4.169 9.292-9.293V83.755c0-1.025-.83-1.858-1.858-1.858z"/></g><g><path d="M6.587 55.566c2.654 1.77 4.748 3.165 4.748 9.605a1.858 1.858 0 1 0 3.717 0c0-8.429-3.4-10.696-6.402-12.697-2.377-1.584-4.306-2.87-4.682-7.747h16.66a1.858 1.858 0 0 0 1.858-1.858V16.851a1.858 1.858 0 1 0-3.717 0v24.16H2.043a1.858 1.858 0 0 0-1.858 1.858c0 8.428 3.4 10.696 6.402 12.697z"/></g><g><path d="M48.505 33.577c-6.15 0-11.151-5.001-11.151-11.15 0-6.15 5-11.152 11.15-11.152s11.151 5.001 11.151 11.151c0 6.15-5 11.15-11.15 11.15zm0-26.019c-8.198 0-14.868 6.67-14.868 14.868s6.67 14.868 14.868 14.868c8.197 0 14.867-6.67 14.867-14.868S56.702 7.558 48.505 7.558z"/></g></g></g></g></g></svg>