<svg xmlns="http://www.w3.org/2000/svg" width="152" height="61" viewBox="0 0 152 61"><g><g><g><g><path fill="#00d8b7" d="M63.539 22.923H73.65v5.056H63.539z"/></g><g><path fill="#00d8b7" d="M146.954 22.923h-7.58v5.056h7.58v10.367a4.528 4.528 0 0 1-2.864 4.222l-7.248 2.913c0-.233-.029-.467-.043-.7-.014-.226-.02-.502-.05-.757-.02-.254-.07-.502-.112-.756-.043-.255-.071-.51-.12-.736-.05-.233-.128-.488-.191-.728-.064-.24-.12-.48-.191-.714-.078-.234-.17-.46-.255-.693-.085-.227-.163-.467-.255-.693-.084-.227-.205-.432-.31-.651-.107-.212-.213-.452-.333-.665-.113-.219-.248-.403-.36-.608a9.264 9.264 0 0 0-.397-.636c-.148-.205-.283-.375-.417-.559-.141-.19-.297-.41-.46-.601a6.646 6.646 0 0 0-.473-.51c-.156-.155-.333-.374-.502-.55-.177-.177-.347-.312-.524-.467-.17-.163-.36-.347-.551-.51-.191-.162-.39-.29-.58-.43-.191-.15-.382-.305-.587-.44-.198-.134-.431-.247-.644-.388a7.089 7.089 0 0 0-.6-.36c-.206-.114-.46-.227-.694-.34-.233-.106-.417-.205-.63-.297a10.168 10.168 0 0 0-.756-.276c-.254-.092-.417-.163-.636-.234-.283-.084-.58-.148-.877-.226-.191-.042-.375-.106-.566-.141-.31-.064-.63-.1-.947-.149-.191-.021-.368-.063-.552-.085-.51-.05-1.011-.077-1.542-.077-8.372.007-15.16 6.795-15.168 15.168H86.288V20.398h27.805c.672 0 1.315-.268 1.789-.742l6.555-6.555a80.709 80.709 0 0 1 8.012 4.384c.297.184.63.311.983.36l15.522 2.214zm-15.373 24.771a10.11 10.11 0 0 1-11.93 7.885c-5.473-1.117-9.002-6.456-7.878-11.93a10.11 10.11 0 0 1 11.93-7.884 10.114 10.114 0 0 1 7.878 11.93zM86.288 5.23h1.428a79.927 79.927 0 0 1 29.743 5.7l-4.413 4.412H86.288zM81.23 15.342H45.648l.488-.268a80.853 80.853 0 0 1 35.095-9.73zm0 30.33H40.79c0-8.373-6.79-15.161-15.169-15.161-8.372 0-15.168 6.788-15.168 15.16h-5.05v-12.48a6.441 6.441 0 0 1 3.254-5.6 54.602 54.602 0 0 1 27.076-7.193h45.498zm-45.703 2.022a10.11 10.11 0 0 1-11.93 7.885 10.11 10.11 0 0 1-7.884-11.93c1.124-5.473 6.463-9.001 11.93-7.884a10.114 10.114 0 0 1 7.884 11.93zm114.311-32.33l-17.17-2.447a85.835 85.835 0 0 0-9.73-5.155A85.051 85.051 0 0 0 87.723.174H84.74A85.893 85.893 0 0 0 43.717 10.64l-8.67 4.723a59.739 59.739 0 0 0-28.9 7.836 11.544 11.544 0 0 0-5.8 9.992v15.013a2.526 2.526 0 0 0 2.525 2.524h8.486c2.765 7.878 11.385 12.022 19.263 9.264a15.12 15.12 0 0 0 9.263-9.264h67.533c2.758 7.878 11.378 12.022 19.256 9.264a15.12 15.12 0 0 0 9.264-9.264h.905c.325 0 .643-.057.94-.177l8.189-3.288a9.557 9.557 0 0 0 6.04-8.917v-20.48a2.54 2.54 0 0 0-2.172-2.503z"/></g></g></g></g></svg>