<svg xmlns="http://www.w3.org/2000/svg" width="82" height="110" viewBox="0 0 82 110"><g><g><g><path d="M20.928 4.298a5.048 5.048 0 0 1 5.043 5.043 5.048 5.048 0 0 1-5.043 5.042 5.048 5.048 0 0 1-5.042-5.042 5.048 5.048 0 0 1 5.042-5.043zm0 14.405c5.162 0 9.361-4.2 9.361-9.362S26.09-.021 20.928-.021c-5.161 0-9.362 4.2-9.362 9.362 0 5.161 4.2 9.362 9.362 9.362z"/></g><g><path d="M46.54 14.383a5.048 5.048 0 0 1-5.043-5.042 5.048 5.048 0 0 1 5.043-5.043 5.048 5.048 0 0 1 5.042 5.043 5.048 5.048 0 0 1-5.042 5.042zm0-14.404c-5.162 0-9.362 4.2-9.362 9.362 0 5.161 4.2 9.362 9.362 9.362s9.361-4.2 9.361-9.362-4.2-9.362-9.361-9.362z"/></g><g><path d="M72.15 4.298a5.049 5.049 0 0 1 5.044 5.043 5.049 5.049 0 0 1-5.043 5.042 5.048 5.048 0 0 1-5.043-5.042 5.048 5.048 0 0 1 5.043-5.043zm0 14.405c5.163 0 9.362-4.2 9.362-9.362s-4.2-9.362-9.361-9.362c-5.162 0-9.362 4.2-9.362 9.362 0 5.161 4.2 9.362 9.362 9.362z"/></g><g><path d="M46.54 36.652a5.048 5.048 0 0 1-5.043-5.043 5.048 5.048 0 0 1 5.043-5.042 5.048 5.048 0 0 1 5.042 5.042 5.048 5.048 0 0 1-5.042 5.043zm0-14.405c-5.162 0-9.362 4.2-9.362 9.362s4.2 9.361 9.362 9.361S55.9 36.771 55.9 31.61c0-5.162-4.2-9.362-9.361-9.362z"/></g><g><path d="M72.15 36.652a5.048 5.048 0 0 1-5.042-5.043 5.048 5.048 0 0 1 5.043-5.042 5.049 5.049 0 0 1 5.043 5.042 5.049 5.049 0 0 1-5.043 5.043zm0-14.405c-5.161 0-9.36 4.2-9.36 9.362s4.199 9.361 9.36 9.361c5.163 0 9.362-4.199 9.362-9.361 0-5.162-4.2-9.362-9.361-9.362z"/></g><g><path d="M72.15 58.92a5.048 5.048 0 0 1-5.042-5.043 5.048 5.048 0 0 1 5.043-5.042 5.048 5.048 0 0 1 5.043 5.042 5.049 5.049 0 0 1-5.043 5.043zm0-14.405c-5.161 0-9.36 4.2-9.36 9.362s4.199 9.361 9.36 9.361c5.163 0 9.362-4.2 9.362-9.361 0-5.162-4.2-9.362-9.361-9.362z"/></g><g><path d="M15.898 105.679l-.009-5.797 33.161-.01.01 5.798zM51.23 87.7l.821-1.132c1.331-1.836 2.156-3.48 2.156-5.999a2.16 2.16 0 1 0-4.319 0c0 1.26-.299 2.037-1.333 3.464l-.822 1.132a7.704 7.704 0 0 0-1.474 4.548v5.79h-26.97v-4.61a9.321 9.321 0 0 0-2.748-6.635l-3.945-3.945a7.863 7.863 0 0 1-2.319-5.596v-2.206c0-4.023-.775-7.95-2.306-11.672l-3.553-8.639a1.322 1.322 0 0 1 .106-1.212c.317-.5.933-.73 1.5-.56a7.178 7.178 0 0 1 4.287 3.499l.785 1.462a23.405 23.405 0 0 1 2.39 6.772l.395 2.107a2.158 2.158 0 0 0 4.281-.398v-35.17c0-.586.219-1.146.616-1.578l.028-.032a2.315 2.315 0 0 1 1.62-.75 2.314 2.314 0 0 1 1.677.614c.478.44.751 1.065.751 1.714v27.818a2.16 2.16 0 0 0 4.32 0V43.373c0-.558.247-1.081.68-1.435a2.443 2.443 0 0 1 3.317.192c.448.461.695 1.07.695 1.713v13.896a2.16 2.16 0 0 0 4.318 0v-8.514c0-.83.199-1.579.589-2.23.3-.502.777-.855 1.342-.993a2.017 2.017 0 0 1 1.545.236l.157.099c.585.366.935.995.935 1.685v11.97a2.16 2.16 0 0 0 4.319 0v-3.83c0-.788.237-1.546.687-2.193.528-.761 1.413-1.153 2.254-.997a2.298 2.298 0 0 1 1.876 2.258v8.32a2.16 2.16 0 0 0 4.319 0v-8.32a6.622 6.622 0 0 0-5.41-6.505 6.434 6.434 0 0 0-3.726.433v-1.135a6.272 6.272 0 0 0-2.965-5.349l-.178-.11a6.304 6.304 0 0 0-4.837-.757c-.384.093-.755.221-1.11.378a6.741 6.741 0 0 0-1.712-3.065 6.734 6.734 0 0 0-7.095-1.683v-8.768a6.67 6.67 0 0 0-2.146-4.891 6.599 6.599 0 0 0-4.782-1.753 6.604 6.604 0 0 0-4.62 2.144l-.029.032a6.631 6.631 0 0 0-1.754 4.5v22.705a11.455 11.455 0 0 0-6.58-5.114 5.66 5.66 0 0 0-6.388 2.386 5.647 5.647 0 0 0-.451 5.166l3.553 8.639a26.255 26.255 0 0 1 1.982 10.03v2.205c0 3.266 1.272 6.338 3.582 8.65l3.946 3.945a5.03 5.03 0 0 1 1.483 3.58v4.67h-1.244a2.16 2.16 0 0 0-2.159 2.164l.016 10.116a2.16 2.16 0 0 0 2.16 2.156l37.48-.01a2.16 2.16 0 0 0 2.16-2.164l-.017-10.116a2.16 2.16 0 0 0-2.16-2.156h-.629v-5.838c.001-.729.227-1.425.653-2.014z"/></g><g><path d="M4.654 20.836l3.326 1.92a2.159 2.159 0 0 0 2.159-3.74l-3.326-1.92a2.16 2.16 0 1 0-2.159 3.74z"/></g><g><path d="M4.532 32.135c.142 0 .286-.014.43-.043l3.764-.76a2.16 2.16 0 1 0-.854-4.232l-3.764.759a2.16 2.16 0 0 0 .424 4.276z"/></g><g><path d="M54.039 71.192a2.159 2.159 0 1 0-4.004 1.62l.02.049a2.16 2.16 0 1 0 4.004-1.62z"/></g></g></g></svg>