<svg xmlns="http://www.w3.org/2000/svg" width="28" height="312" viewBox="0 0 28 312"><defs><linearGradient id="u62wa" x1="13.84" x2="13.84" y1="13.57" y2="297.38" gradientUnits="userSpaceOnUse"><stop offset="0" stop-color="#00d8b7"/><stop offset="1" stop-color="#006c5c"/></linearGradient><clipPath id="u62wb"><path fill="#fff" d="M0 28V0h28v28zm8-14.15a5.846 5.846 0 1 0 11.693 0A5.846 5.846 0 0 0 8 13.85z"/></clipPath><clipPath id="u62wc"><path fill="#fff" d="M0 170v-29h28v29zm8-14.467a5.846 5.846 0 1 0 11.693 0 5.846 5.846 0 0 0-11.693 0z"/></clipPath><clipPath id="u62wd"><path fill="#fff" d="M0 312v-29h28v29zm8-14.346a5.846 5.846 0 1 0 11.693 0 5.846 5.846 0 0 0-11.693 0z"/></clipPath></defs><g><g><g><path fill="url(#u62wa)" d="M11.34 13.572h5.012v283.803h-5.011z"/></g><g><path fill="#fff" d="M13.846 8.004a5.846 5.846 0 1 1 0 11.693 5.846 5.846 0 0 1 0-11.693z"/><path fill="none" stroke="#292929" stroke-miterlimit="50" stroke-width="16" d="M13.846 8.004a5.846 5.846 0 1 1 0 11.693 5.846 5.846 0 0 1 0-11.693z" clip-path="url(&quot;#u62wb&quot;)"/></g><g><path fill="#fff" d="M13.846 149.687a5.846 5.846 0 1 1 0 11.692 5.846 5.846 0 0 1 0-11.692z"/><path fill="none" stroke="#292929" stroke-miterlimit="50" stroke-width="16" d="M13.846 149.687a5.846 5.846 0 1 1 0 11.692 5.846 5.846 0 0 1 0-11.692z" clip-path="url(&quot;#u62wc&quot;)"/></g><g><path fill="#fff" d="M13.846 291.807a5.846 5.846 0 1 1 0 11.693 5.846 5.846 0 0 1 0-11.693z"/><path fill="none" stroke="#292929" stroke-miterlimit="50" stroke-width="16" d="M13.846 291.807a5.846 5.846 0 1 1 0 11.693 5.846 5.846 0 0 1 0-11.693z" clip-path="url(&quot;#u62wd&quot;)"/></g></g></g></svg>